<svg xmlns="http://www.w3.org/2000/svg" width="209" height="54" viewBox="0 0 209 54" fill="none">
<path d="M26.7884 1.58838C25.9918 1.58838 25.3884 1.58838 25.8255 1.58838C19.9011 1.58838 14.4835 3.71519 10.2701 7.23931C10.1333 7.35196 9.99918 7.4646 9.86508 7.57992C9.85167 7.59065 9.84094 7.60138 9.82753 7.61211C7.02486 10.0447 4.79346 13.1182 3.37201 16.6102C2.67469 18.6538 2.37163 20.4078 2.38235 22.5749C2.38235 22.9664 2.49232 25.7208 4.00227 28.4135C6.8854 33.5576 11.9758 34.9469 14.8267 34.92C20.4696 34.8691 27.0754 32.104 32.6324 26.9787C32.6324 26.9787 31.9136 31.007 31.6937 32.2541C31.4818 33.4584 32.2703 34.5177 33.4746 34.5258H33.9734C35.2205 34.5258 36.1083 33.5093 36.3335 32.2541L38.337 20.9871C38.5757 19.7347 37.755 18.7209 36.5025 18.7209H25.2167C23.9616 18.7209 22.811 19.386 22.5911 20.6439C22.5804 20.7163 22.5133 21.073 22.5026 21.1534C22.3256 22.3496 23.1597 23.2534 24.3558 23.2534H30.2428C30.1489 23.3419 30.0577 23.4304 29.9612 23.527C25.9006 27.3729 20.888 29.4756 16.747 29.4756C12.6061 29.4756 8.11375 26.858 7.9716 20.9791C7.93137 19.2573 8.25321 18.3454 8.49727 17.5193C10.8789 10.4631 20.0486 6.48836 26.7857 6.68146C37.991 7.00062 46.4285 16.0898 46.4285 27.2952C46.4285 38.5005 36.068 47.933 24.8574 47.933C13.5689 47.933 7.77582 42.2392 4.772 37.5001C2.92411 34.5821 2.89998 35.9338 3.89767 38.0016C8.00379 46.5169 16.7122 52.4119 26.7884 52.4119C40.8098 52.4119 52.2136 41.0135 52.2136 27.0028C52.2136 12.9922 40.8098 1.58838 26.7884 1.58838Z" fill="#FAFAFA"/>
<path d="M59.031 36.6791L62.7321 17.5029H65.9827L69.1126 26.6753L76.1528 17.5029H79.4275L75.7183 36.6791H72.3283L75.2677 23.2853L69.1474 31.2159H67.4819L64.58 23.3711L62.2816 36.6791H59.031Z" fill="#FAFAFA"/>
<path d="M86.4144 25.608C85.7197 25.608 85.0626 25.8333 84.4216 26.2838C83.7806 26.7344 83.2523 27.3405 82.8259 28.0969C82.4021 28.8505 82.1929 29.7087 82.1929 30.6716C82.1929 31.6853 82.4343 32.5436 82.9305 33.2275C83.4159 33.9221 84.1695 34.26 85.1833 34.26C85.878 34.26 86.5431 34.0428 87.1948 33.611C87.8438 33.1765 88.3829 32.5784 88.8067 31.8168C89.2304 31.0551 89.4396 30.162 89.4396 29.1455C89.4396 28.07 89.1956 27.2118 88.7021 26.5708C88.2166 25.9298 87.455 25.608 86.4144 25.608ZM86.8488 22.7302C88.6511 22.7302 90.0833 23.2586 91.148 24.326C92.2155 25.3934 92.7438 26.831 92.7438 28.652C92.7438 30.221 92.4059 31.6505 91.722 32.9351C91.0461 34.2171 90.1101 35.2417 88.922 35.9953C87.7339 36.7489 86.3661 37.1298 84.8132 37.1298C83.6439 37.1298 82.6113 36.8777 81.7262 36.3842C80.8331 35.8826 80.1492 35.188 79.6558 34.2869C79.1623 33.3857 78.9182 32.3451 78.9182 31.149C78.9182 29.9528 79.1274 28.8854 79.5324 27.8716C79.94 26.8578 80.5113 25.9566 81.2408 25.1842C81.9676 24.4038 82.8098 23.8057 83.7726 23.3712C84.7354 22.9367 85.7573 22.7222 86.8488 22.7222V22.7302Z" fill="#FAFAFA"/>
<path d="M93.2881 36.6792L95.9057 23.1996H99.0087L98.7754 24.7256C99.3118 24.2482 99.7972 23.8754 100.24 23.6153C100.682 23.3551 101.141 23.1727 101.634 23.0682C102.12 22.9636 102.683 22.9126 103.316 22.9126C103.949 22.9126 104.574 23.0682 105.145 23.39C105.708 23.7011 106.167 24.1624 106.524 24.7685C106.88 25.3747 107.052 26.0961 107.052 26.9356C107.052 27.1448 107.044 27.3861 107.025 27.6543C107.009 27.9225 106.963 28.2015 106.913 28.4858L105.336 36.6765H102.085L103.576 28.9176C103.611 28.7271 103.646 28.5367 103.662 28.3543C103.678 28.172 103.689 28.0084 103.689 27.8528C103.689 27.2976 103.592 26.8551 103.402 26.5252C103.115 26.0317 102.57 25.7796 101.763 25.7796C100.749 25.7796 99.8911 26.1685 99.2072 26.9409C98.5233 27.7133 98.062 28.6735 97.8555 29.8026L96.5279 36.6765H93.2773H93.2854L93.2881 36.6792Z" fill="#FAFAFA"/>
<path d="M111.944 28.5634H118.212C118.228 28.4669 118.239 28.3891 118.239 28.3301V28.1316C118.239 27.2305 117.987 26.5707 117.493 26.1469C116.991 25.7232 116.383 25.514 115.656 25.514C114.771 25.514 114.001 25.7741 113.341 26.2944C112.682 26.8148 112.215 27.5684 111.947 28.5661L111.944 28.5634ZM115.916 22.8159C117.182 22.8159 118.214 23.0761 119.011 23.6044C119.808 24.1328 120.398 24.8194 120.778 25.6749C121.159 26.5251 121.35 27.4611 121.35 28.4749C121.35 28.8986 121.323 29.3063 121.264 29.6979C121.202 30.0868 121.135 30.5052 121.039 30.945H111.695V31.1193C111.695 32.0983 111.99 32.8707 112.569 33.4339C113.151 33.9971 113.947 34.2841 114.945 34.2841C115.707 34.2841 116.393 34.1553 116.983 33.8952C117.573 33.635 118.164 33.281 118.735 32.8197L120.373 35.0913C119.647 35.7055 118.805 36.2017 117.86 36.5745C116.916 36.9473 115.814 37.1377 114.567 37.1377C113.32 37.1377 112.314 36.9044 111.378 36.4431C110.442 35.9844 109.705 35.3086 109.176 34.4155C108.648 33.5224 108.388 32.4576 108.388 31.2078C108.388 29.596 108.718 28.1665 109.367 26.9006C110.016 25.6347 110.909 24.637 112.035 23.9102C113.162 23.1833 114.462 22.8186 115.919 22.8186L115.916 22.8159Z" fill="#FAFAFA"/>
<path d="M125.137 36.4433L121.921 23.189H125.284L127.47 32.4123L132.383 23.189H136.146L125.075 42.5797H121.331L125.137 36.4433Z" fill="#FAFAFA"/>
<path d="M153.657 26.5522L152.131 34.4319C151.133 35.2553 150.033 35.9231 148.829 36.4246C147.625 36.9261 146.193 37.1863 144.546 37.1863C142.899 37.1863 141.451 36.8296 140.204 36.1108C138.957 35.392 137.986 34.3943 137.283 33.1204C136.581 31.8465 136.235 30.3633 136.235 28.6817C136.235 27.1288 136.503 25.6484 137.042 24.243C137.578 22.8377 138.335 21.5906 139.295 20.507C140.266 19.4235 141.419 18.5653 142.763 17.9323C144.106 17.2994 145.579 16.9883 147.193 16.9883C149.049 16.9883 150.564 17.3879 151.718 18.1844C152.879 18.981 153.764 20.0645 154.378 21.4431L151.474 23.0817C150.937 22.1028 150.328 21.384 149.645 20.9227C148.961 20.4641 148.059 20.2281 146.93 20.2281C145.874 20.2281 144.919 20.4534 144.053 20.904C143.186 21.3545 142.449 21.9607 141.843 22.7331C141.228 23.4948 140.759 24.3718 140.421 25.3346C140.083 26.2974 139.92 27.3032 139.92 28.3331C139.92 29.3629 140.11 30.248 140.491 31.0821C140.872 31.9135 141.427 32.5813 142.156 33.0748C142.886 33.5763 143.768 33.8204 144.801 33.8204C145.737 33.8204 146.525 33.7426 147.177 33.579C147.818 33.4154 148.478 33.0775 149.146 32.5572L149.717 29.54H146.466L147.038 26.5495H153.659L153.657 26.5522Z" fill="#FAFAFA"/>
<path d="M153.917 36.6768L156.535 23.1972H159.638L159.378 24.9485C159.836 24.455 160.391 23.9937 161.043 23.57C161.692 23.1462 162.491 22.937 163.427 22.937C164.044 22.937 164.607 23.0416 165.128 23.2589L163.974 26.4236C163.706 26.3109 163.473 26.2251 163.272 26.1795C163.073 26.1366 162.813 26.1098 162.51 26.1098C161.453 26.1098 160.568 26.4987 159.839 27.2899C159.109 28.0784 158.643 29.0224 158.433 30.1328L157.168 36.6875H153.917V36.6795V36.6768Z" fill="#FAFAFA"/>
<path d="M172.339 31.7017L172.573 30.5485C172.339 30.5136 172.071 30.4707 171.749 30.4358C171.438 30.4009 171.004 30.3741 170.467 30.3741C169.124 30.3741 168.18 30.6262 167.624 31.1197C167.069 31.6212 166.793 32.1952 166.793 32.8442C166.793 33.9197 167.488 34.4561 168.863 34.4561C169.593 34.4561 170.312 34.212 171.022 33.7373C171.733 33.2599 172.176 32.576 172.35 31.691L172.342 31.699L172.339 31.7017ZM171.454 36.6795L171.653 35.3519C171.038 35.9848 170.387 36.4274 169.703 36.6875C169.008 36.9477 168.298 37.0764 167.544 37.0764C166.833 37.0764 166.192 36.9289 165.602 36.6339C165.02 36.3388 164.545 35.907 164.181 35.3411C163.816 34.7779 163.634 34.1021 163.634 33.3136C163.634 32.2381 163.91 31.3021 164.465 30.4975C165.02 29.6902 165.801 29.068 166.806 28.6255C167.812 28.1829 168.981 27.9657 170.325 27.9657C170.88 27.9657 171.382 27.9818 171.816 28.0086C172.251 28.0354 172.658 28.0703 173.02 28.1132C173.082 27.8799 173.106 27.6626 173.106 27.4534C173.106 26.8393 172.862 26.3619 172.388 26.0132C171.91 25.6672 171.312 25.4929 170.601 25.4929C169.681 25.4929 168.936 25.6136 168.373 25.8657C167.809 26.1178 167.289 26.386 166.804 26.673L165.538 24.5489C166.109 24.1251 166.881 23.7174 167.852 23.3259C168.823 22.937 169.976 22.7358 171.32 22.7358C172.776 22.7358 173.956 23.1355 174.858 23.932C175.759 24.7286 176.209 25.8469 176.209 27.2791C176.209 27.4695 176.193 27.668 176.166 27.8852C176.14 28.1025 176.105 28.3278 176.062 28.5799L174.509 36.6848H171.433L171.449 36.6768L171.454 36.6795Z" fill="#FAFAFA"/>
<path d="M194.045 36.6768L195.536 28.9178C195.632 28.4753 195.683 28.0676 195.683 27.6787C195.683 27.1852 195.563 26.7427 195.319 26.3511C195.075 25.9703 194.608 25.7799 193.897 25.7799C192.977 25.7799 192.181 26.1017 191.497 26.7239C190.813 27.3569 190.343 28.3358 190.075 29.6526L188.724 36.666H185.473L186.964 28.9071C187.061 28.4645 187.112 28.0569 187.112 27.668C187.112 27.1745 186.991 26.732 186.755 26.3404C186.511 25.9596 186.044 25.7691 185.334 25.7691C184.32 25.7691 183.478 26.158 182.821 26.9304C182.161 27.7028 181.721 28.663 181.512 29.7921L180.184 36.666H176.934L179.551 23.1864H182.654L182.421 24.7124C182.957 24.235 183.443 23.8622 183.869 23.6021C184.304 23.3419 184.754 23.1596 185.221 23.055C185.69 22.9504 186.243 22.8994 186.876 22.8994C187.544 22.8994 188.158 23.0737 188.713 23.4197C189.268 23.7657 189.7 24.2511 190.006 24.8841C190.735 24.2163 191.454 23.7147 192.173 23.3929C192.891 23.0711 193.854 22.9075 195.058 22.9075C196.15 22.9075 197.078 23.2642 197.85 23.9749C198.612 24.6856 199.004 25.6753 199.004 26.9385C199.004 27.1477 198.996 27.389 198.977 27.6572C198.961 27.9254 198.915 28.2044 198.864 28.4887L197.287 36.6794H194.037L194.045 36.6714V36.6768Z" fill="#FAFAFA"/>
<path d="M201.839 31.7646C200.45 31.7646 199.324 32.89 199.324 34.278C199.324 35.6661 200.45 36.7914 201.839 36.7914C203.228 36.7914 204.354 35.6661 204.354 34.278C204.354 32.89 203.228 31.7646 201.839 31.7646ZM201.839 36.2835C200.73 36.2835 199.83 35.3858 199.83 34.2758C199.83 33.1658 200.728 32.2682 201.839 32.2682C202.95 32.2682 203.848 33.1658 203.848 34.2758C203.848 35.3858 202.95 36.2835 201.839 36.2835Z" fill="#FAFAFA"/>
<path d="M201.81 34.6616H201.407V35.602H200.912V32.8932H201.964C202.47 32.8932 202.877 33.2953 202.877 33.7904C202.877 34.1319 202.663 34.4368 202.347 34.5794L202.925 35.602H202.332L201.808 34.6616H201.81ZM201.407 34.2076H201.983C202.194 34.2076 202.369 34.0238 202.369 33.7904C202.369 33.5569 202.194 33.3775 201.983 33.3775H201.407V34.2076Z" fill="#FAFAFA"/>
</svg>