<svg xmlns="http://www.w3.org/2000/svg" viewBox="0 0 1281.19 394.54"><path d="M273.34-.72c92.75 0 167.93 75.19 167.93 167.93 0 86.06-64.74 156.99-148.17 166.77 58.95-20.96 101.17-77.23 101.17-143.38 0-84.02-68.11-152.13-152.13-152.13-50.83 0-95.83 24.93-123.46 63.23C144.2 41.5 203.84-.72 273.34-.72" style="fill:#00a940;fill-rule:evenodd"/><path d="M43.58 342.52c8.15-31.65 21.34-109.36 40.2-175.64C104.33 94.63 140.22 26.37 213.91-.16 29.42 27.79 37.02 236.89.92 377.04c-1.19 4.63.62 9.32 3.95 12.39 2.34 2.16 5.43 3.52 8.78 3.48 68.84-.94 137.88 2.3 206.64.17 50.08-1.55 100.29-13.21 141.23-43.27 37.71-27.69 61.01-69.13 73.24-113.67-11.03 28.52-29.58 54.45-54.8 74.69-31.47 25.25-105.5 39.64-144.81 43.05-31.3 3.31-76.81 4.99-142.31 1.9-16.08-.43-29.6-.8-39.18-.67-2.26.03-4.36-.75-6.09-2.04l-.96-.63c-.26-.27-.59-.64-.93-1.1-.85-1.13-1.32-2.12-1.46-2.43-.51-1.14-.78-2.22-.91-3.09v-.1c-.1-1.05-.05-2.12.23-3.2" style="fill:#00a940"/><path d="M498.64 239.01c0-7.71-.09-15.95.02-24.2.26-20.62-.57-41.34 1.21-61.83 2.5-28.83 19.2-45.53 48.13-50.3 19.19-3.17 38.29-2.57 56.13 6.21 24.22 11.92 32.76 33.38 33.53 58.67 1.46 47.73-33.23 69.13-65.96 71.15-23.92 1.48-48.01.29-73.07.29Zm20.33-18.06c19.24-1.09 38.1-.44 56.3-3.57 29.14-5.02 42.58-24.12 40.82-53.61-1.35-22.71-14.34-37.97-36.84-41.15-9.7-1.37-20.03-1.13-29.69.55-19.28 3.36-30.07 15.92-30.49 34.5-.46 20.39-.11 40.81-.11 63.29ZM1005.81 240.03h-19.22c-.35-.44-.83-.76-.83-1.08.18-21.69-.6-43.45.85-65.06 2.12-31.56 29.48-40.5 51.07-37.77 12.96 1.63 22.21 8.79 29.15 20.14 1.36-1.8 2.41-3.06 3.32-4.42 16.76-24.77 58.37-18.86 70.68 1.34 3.03 4.98 6.32 10.82 6.49 16.36.72 23.31.3 46.66.3 70.34h-18.65c-.1-2.11-.28-4.16-.29-6.21-.03-15.54.19-31.08-.13-46.62-.11-5.24-.96-10.64-2.53-15.62-3.9-12.35-11.72-17.28-25.2-16.82-11.14.38-19.06 6.95-21.9 18.75-1.03 4.29-1.43 8.82-1.47 13.25-.16 17.62-.07 35.25-.07 53.24h-19.97c-.1-2-.28-4.04-.28-6.09-.02-16.18.14-32.36-.11-48.53-.07-4.61-.8-9.35-2.1-13.77-3.19-10.87-10.67-16.52-21.33-16.85-12.95-.4-20.95 4.28-24.76 15.7-1.85 5.54-2.75 11.62-2.87 17.48-.37 17.2-.13 34.41-.13 52.25ZM1169.96 250.18c5.87-2.94 11.15-5.58 16.75-8.39 12.24 15.79 28.75 18.82 47.04 15.36 16.09-3.04 25.6-14.81 26.24-32.5-9.29 10.95-21.16 14.94-34.19 15.49-29.95 1.27-51.87-16.17-54.98-45.95-1.95-18.67-.36-37.72-.36-56.95h19.38c0 8.46-.13 16.9.03 25.33.21 10.83-.49 21.85 1.27 32.44 3.1 18.64 17.4 27.75 38.31 26.12 18.06-1.41 30.36-13.97 30.73-32.11.34-17.02.07-34.06.07-51.61h20.01c.1 1.85.29 3.7.3 5.55.02 24.91.24 49.83-.13 74.74-.11 7.36-1.06 14.94-3.09 22.01-6.14 21.42-20.9 33.6-42.83 36.51-24.32 3.23-46.27-1.09-62.17-22.02-.75-.99-1.28-2.15-2.38-4.01ZM754.26 199.32c4.18 24.99 42.65 32.89 66.33 13.91 3.76 4.45 7.58 8.97 11.91 14.09-2.64 1.85-5.97 4.77-9.79 6.78-20.92 11-42.43 12.14-63.68 1.59-21.1-10.48-30.7-32.12-26.52-57.01 3.53-21.02 20.91-37.93 42.85-41.8 16.1-2.84 31.41-.95 45.42 7.82 8.75 5.48 14.3 13.33 15 23.92 1.07 16.08-8.78 27.82-26.16 29.29-15.86 1.34-31.87 1.02-47.81 1.41-2.49.06-4.98 0-7.55 0m-1.07-18.05c16.96 0 33.89.23 50.8-.14 5.2-.11 10.06-2.37 11.44-8.38 1.25-5.43-1.64-10.91-7.61-14.06-8.4-4.43-17.54-5.04-26.66-3.67-16 2.41-26.09 12.1-27.97 26.24ZM964.88 239.9H944.8v-11.88c-2.48 1.93-3.98 3.15-5.53 4.3-22.27 16.65-56.96 13.09-75.47-7.75-17.14-19.29-16.94-53.59 1.45-71.92 18.25-18.2 40.74-20.97 64.42-13.32 23.67 7.65 33.81 26.08 35.04 49.65.87 16.74.17 33.57.17 50.93Zm-57.27-16.12c22.58.09 36.93-13.03 37.03-33.86.1-20.53-14.9-35.2-36.14-35.32-22.19-.13-36.78 13.4-36.87 34.19-.09 21.27 13.94 34.91 35.97 34.99ZM725.95 158.14c-6.94-1.33-12.71-3.23-18.54-3.4-20.55-.6-33.34 11.97-33.79 33.04-.32 14.89-.07 29.8-.08 44.69v7.33h-20.26c0-2.11-.03-4.35 0-6.59.29-17.64-.82-35.45 1.2-52.89 3.54-30.49 28.47-48.5 59.04-44.25 6.78.94 13.4 3 20.82 4.71-3.31 6.84-5.95 12.3-8.39 17.36M993.54 329.59c6.92 10.2 13.58 20.02 20.31 29.93-12.89 4.28-18.91 2.38-25.79-7.9-3.32-4.96-7.14-9.68-9.82-14.97-3.35-6.59-8.19-7.96-15.63-5.9v29.9h-16.44V283.9c15.12 0 29.76-.98 44.29 0 11.92.8 19.11 8.29 20.71 18.55 1.78 11.42-3.12 20.18-14.27 25.54-.91.44-1.82.87-3.35 1.6Zm-30.94-13.91c7.87 0 15.87.3 23.33-.1 5.03-.27 7.55-3.55 7.61-8.71.07-5.44-2.31-9.09-7.79-9.39-7.45-.41-14.87-.1-23.14-.1 0 4.37-.23 15.43 0 18.31ZM828.55 326.25c0 29.98-25.89 45.49-52.86 31.59-7.93-4.08-13.57-10.41-14.11-19.56-.61-10.51-.32-21.09-.1-31.63.05-2.61 1.02-5.35 2.15-7.76 5.69-12.11 21.98-18.67 38.72-15.79 15.61 2.68 24.72 12 25.96 26.87.34 4.04.24 14.92.24 16.28m-17.93-3.79c0-3.53.11-7.07-.02-10.6-.35-9.71-5.58-14.63-15.63-14.84-10.18-.21-16.01 5.01-16.34 14.98-.22 6.52-.11 13.05 0 19.57.17 10.53 5.91 16.29 16.06 16.28 10.13-.01 15.76-5.8 15.94-16.42.05-2.99 0-5.98 0-8.97ZM1030.56 352.49s-.01-.05-.02-.07c-.58-2.97 4.47-8.34 7.15-8.96 1.12-.26 2.3-.06 3.44.14 6.83 1.2 13.58 2.9 20.45 3.89 4.95.71 14.34 2.64 18.61-.94 1.19-.99 1.87-2.46 2.35-3.93.63-1.94.94-4.12.09-5.98-.66-1.42-1.92-2.46-3.24-3.29-11.98-7.54-30.07-2.2-40.09-13.43-2.29-2.56-3.71-5.83-4.32-9.2-1.07-5.89.34-12.19 3.82-17.06 4.51-6.31 11.81-9.04 19.19-10.27 13.62-2.28 28.03.48 39.85 7.63-1.48 2.66-2.42 8.61-6.05 9.19-.83.13-1.68 0-2.51-.13-9.26-1.47-18.63-3.56-28.05-2.95-1.99.13-4.03.47-5.73 1.51-2.05 1.26-3.44 3.55-3.61 5.95s.87 4.86 2.72 6.41c1.86 1.55 4.33 2.12 6.69 2.65 8.2 1.82 16.96 2.59 24.84 5.57 4.07 1.54 7.92 3.95 10.47 7.48 2.24 3.1 3.38 6.92 3.54 10.75.23 5.54-1.64 11.21-5.39 15.3-6.59 7.18-17.8 9.06-27.09 9.41-10.81.41-21.76-1.8-31.52-6.47-1.04-.5-5.2-2.01-5.58-3.17ZM745.93 297.34h-24.42v63.19h-17.04v-63.11H679.1v-13.55h66.83v13.46ZM919.96 285.99h-16.49v17.91c0 9.54.09 19.09-.03 28.63-.14 11-5.9 15.96-16.66 16.09-10.75-.14-15.74-5.1-15.87-16.09-.12-9.54-.03-19.08-.03-28.63v-17.91h-16.49c0 16.53-.09 32.62.03 48.71.1 14.06 8.1 23.89 21.39 26.67 3.7.77 7.31 1.15 10.78 1.21.06.01.14 0 .2 0h.19c3.53-.07 7.86-.45 11.56-1.22 13.29-2.77 21.29-12.6 21.39-26.67.12-16.09.03-32.18.03-48.71Z"/></svg>