<svg xmlns="http://www.w3.org/2000/svg" id="Capa_1" version="1.1" viewBox="0 0 1354.27 455.23"><defs><style>.st0,.st1{fill:#00a43d;fill-rule:evenodd}.st1{fill:#12100d}</style></defs><path d="M309.56 22.09c93.47 0 169.24 75.77 169.24 169.24 0 86.73-65.25 158.21-149.33 168.07 103.8-36.9 121.25-174.68 56.61-245.07-56.3-61.3-175.86-67.4-232.39 10.97 25.73-60.66 85.83-103.21 155.88-103.21Z" class="st0"/><path d="M81.31 365.99c8.53-33.11 10.01-105.66 29.74-174.98 21.5-75.57 59.04-146.96 136.11-174.71C54.2 45.53 62.15 264.23 24.39 410.82c-2.13 8.27 4.91 16.72 13.32 16.6 45.52-.62 91.84-.52 137.96-.36 136.14.46 258.54-3.51 302.49-163.61C417.84 419.42 224.1 377.34 91.88 379.16c-6.8.08-12.24-6.66-10.57-13.17" class="st0"/><path d="M933.87 221.52c-30.23 0-54.83 24.59-54.83 54.82s24.59 54.82 54.83 54.82c1.7 0 3.38-.1 5.04-.25.5-.05 1-.11 1.5-.17 1.2-.14 2.39-.32 3.56-.54.5-.09 1.01-.18 1.51-.29 1.46-.32 2.9-.68 4.31-1.11.14-.04.29-.07.43-.12 1.51-.47 2.99-1.03 4.44-1.63.5-.21.99-.43 1.48-.65.99-.44 1.97-.92 2.94-1.42.5-.26 1-.52 1.49-.79 1.13-.63 2.23-1.3 3.31-2.01.24-.16.5-.3.74-.46v9.12h23.15v-44.63a55 55 0 0 0 .93-9.86c0-30.23-24.59-54.82-54.82-54.82Zm0 86.5c-17.47 0-31.67-14.21-31.67-31.67s14.21-31.67 31.67-31.67 31.67 14.21 31.67 31.67-14.21 31.67-31.67 31.67M1307.12 218v54.68c0 17.46-14.21 31.67-31.67 31.67s-31.67-14.21-31.67-31.67v-54.49h-23.15v54.49c0 30.23 24.59 54.82 54.83 54.82 1.72 0 3.41-.1 5.09-.26.97-.09 1.92-.25 2.87-.39.62-.09 1.25-.17 1.86-.28 1.27-.23 2.51-.52 3.75-.84.22-.06.44-.11.66-.17q2.1-.57 4.14-1.29c-3.93 4.33-8.12 6.67-11.55 7.93h-.01c-.42.15-.82.29-1.21.41-.02 0-.05.02-.07.02-.37.12-.73.22-1.07.31-.03 0-.07.02-.1.03-.33.08-.64.16-.94.22-.04 0-.08.02-.12.03-.29.06-.56.11-.82.16-.04 0-.08.02-.13.02-.25.04-.49.08-.71.11-.04 0-.08.01-.12.02-.21.03-.4.05-.57.07-.04 0-.09.01-.13.01-.17.02-.31.03-.45.04h-.1c-.15 0-.29.01-.39.02l.13 11.58-.04 11.58h.05c2.11 0 18.93-.48 33.64-15.14.85-.85 1.68-1.72 2.48-2.63.34-.39.66-.8 1-1.2.44-.53.89-1.05 1.32-1.59.46-.59.89-1.2 1.32-1.81.28-.38.57-.75.83-1.14.51-.74.99-1.51 1.47-2.29.17-.28.36-.55.53-.84.52-.86 1-1.75 1.48-2.65.12-.22.24-.42.36-.64.51-.97.99-1.98 1.46-3 .07-.15.15-.3.22-.45.49-1.09.96-2.2 1.41-3.34.04-.09.08-.18.11-.27q.69-1.77 1.32-3.63c.02-.05.03-.09.05-.14 3.44-10.27 5.19-22.26 5.23-35.88.15-1.07.27-2.13.36-3.21.13-1.42.22-2.85.22-4.3V218h-23.15ZM609.35 216.31h-54.81v110.1h49.04s.76.05 2.1.05c10.68 0 58.49-2.91 58.49-55.1 0 0 0-55.05-54.81-55.05Zm18.48 81.84c-6.96 3.8-16.01 5.15-22.16 5.15h-.77l-.44-.04h-26.78v-63.79h31.66c17.14 0 23.29 7.34 26.74 13.73 4.49 8.33 4.9 17.53 4.92 18.34-.05 17.24-7.06 23.29-13.18 26.63ZM698.28 228.19c-11.93 11.05-17.99 27.54-17.99 49v49.27h23.15v-49.27c0-14.62 3.49-25.33 10.38-31.84 8.57-8.1 20.37-7.54 20.49-7.51l.78-11.55.89-11.54c-2.2-.17-21.86-1.22-37.71 13.45ZM1146.42 221.52c-1.71 0-3.39.1-5.06.26-.29.03-.57.05-.86.08-1.56.17-3.1.41-4.61.71-.37.07-.73.15-1.09.23-1.47.32-2.92.68-4.34 1.12-.37.11-.72.24-1.08.36-1.14.38-2.26.79-3.37 1.24-.48.19-.96.38-1.43.58-1.12.49-2.21 1.03-3.29 1.59-.59.31-1.18.62-1.76.95-1 .57-1.99 1.16-2.95 1.79-.68.44-1.34.91-2 1.38-.45.32-.88.65-1.32.99-1.16.89-2.28 1.82-3.37 2.79-.27.24-.54.48-.8.73-2.14 2-4.12 4.15-5.92 6.46-1.8-2.31-3.78-4.47-5.92-6.47-.26-.24-.53-.48-.8-.72-1.09-.98-2.21-1.91-3.37-2.79q-.645-.495-1.32-.99a55 55 0 0 0-2-1.38c-.96-.63-1.95-1.22-2.95-1.79-.58-.33-1.17-.64-1.76-.95-1.08-.56-2.17-1.1-3.29-1.59-.47-.21-.95-.39-1.43-.59a57 57 0 0 0-3.37-1.24c-.36-.12-.72-.25-1.08-.36-1.42-.44-2.87-.8-4.34-1.12a54.53 54.53 0 0 0-5.7-.94c-.28-.03-.57-.05-.86-.08-1.67-.15-3.35-.26-5.06-.26-30.23 0-54.82 24.59-54.82 54.82v54.68h23.15v-54.68c0-17.46 14.21-31.67 31.67-31.67s31.67 14.21 31.67 31.67v54.68h23.15v-54.68c0-17.46 14.21-31.67 31.67-31.67s31.67 14.21 31.67 31.67v54.49h23.15v-54.49c0-30.23-24.59-54.82-54.82-54.82ZM832.93 290.17c0 5.44-13.33 10.99-26.41 10.99s-24.85-8.34-29.48-20.1h72.73c6.39 0 11.58-5.18 11.58-11.58 0-30.23-24.59-54.82-54.82-54.82s-54.82 24.59-54.82 54.82 24.59 54.82 54.82 54.82c24.03 0 49.57-11.96 49.57-34.14h-23.15Zm-26.41-52.35c13.38 0 24.85 8.34 29.48 20.09h-58.96c4.63-11.75 16.1-20.09 29.48-20.09M792.49 377.36h18.5v46.95h2.9v-46.95h18.5v-2.89h-39.9zm279.12-.74c12.43 0 15.87 8.67 16.01 9.04l2.71-1.01c-.16-.45-4.21-10.92-18.72-10.92s-16.2 11.15-16.21 11.19c-.04.22-.86 5.59 2.84 9.95 2.97 3.5 7.9 5.28 14.66 5.28 5.45 0 9.31 1.38 11.45 4.1 2.97 3.77 1.74 9.04 1.73 9.1l-.06.24.02.24s.22 2.97-2.01 5.41c-2.18 2.4-5.95 3.62-11.18 3.62-13.99 0-14.65-8.87-14.67-9.24l-2.9.12c0 .12.71 12.01 17.56 12.01 6.09 0 10.57-1.54 13.33-4.57 2.7-2.97 2.79-6.41 2.76-7.38.25-1.22 1.17-6.88-2.3-11.32-2.72-3.47-7.34-5.23-13.74-5.23-5.85 0-10.03-1.42-12.43-4.23-2.85-3.32-2.22-7.6-2.21-7.71.04-.35 1.21-8.7 13.34-8.7Zm-41.29 12.1c0-12.91-12.11-14.96-12.46-14.99h-20.29v51.57h2.89v-22.55l7.52.09 19.77 24.05 2.24-1.84-18.22-22.17 6.89.09c.12 0 11.66-1.26 11.66-14.25m-29.85 11.13v-23.23l17.17-.02c.4.07 9.79 1.71 9.79 12.11s-8.67 11.33-8.88 11.36l-18.08-.23Zm-34.79 8.63c0 8.85-7.2 16.04-16.04 16.04s-16.04-7.19-16.04-16.04v-34.6h-2.89v34.6c0 10.44 8.49 18.94 18.94 18.94s18.94-8.5 18.94-18.94v-34.6h-2.89v34.6Zm-84.33-36.04c-14.48 0-26.26 11.78-26.26 26.26s11.78 26.26 26.26 26.26 26.26-11.78 26.26-26.26-11.78-26.26-26.26-26.26m0 49.63c-12.88 0-23.37-10.48-23.37-23.37s10.48-23.37 23.37-23.37 23.37 10.48 23.37 23.37-10.48 23.37-23.37 23.37" class="st1"/></svg>