<svg xmlns="http://www.w3.org/2000/svg" id="Capa_1" version="1.1" viewBox="0 0 1354.27 455.23"><defs><style>.st0{fill:#1d1d1b}.st3{fill:#000100}</style></defs><path d="M304.99 49.48c83.75 0 151.64 67.89 151.64 151.64 0 77.71-58.46 141.76-133.8 150.59 53.23-18.92 91.36-69.74 91.36-129.47 0-75.87-61.51-137.38-137.38-137.38-45.9 0-86.54 22.51-111.48 57.09 23.05-54.35 76.91-92.48 139.66-92.48" style="fill:#14a641;fill-rule:evenodd"/><path d="M97.52 359.42c7.36-28.58 19.27-98.75 36.3-158.61 18.56-65.24 50.97-126.88 117.51-150.84C84.74 75.22 91.61 264.04 59 390.59c-1.08 4.18.56 8.41 3.57 11.19 2.11 1.95 4.9 3.18 7.93 3.14 62.16-.85 124.5 2.07 186.6.15 45.22-1.4 90.56-11.93 127.53-39.08 34.06-25 55.1-62.42 66.14-102.64-9.96 25.75-26.71 49.17-49.48 67.45-28.42 22.8-95.27 35.79-130.76 38.88-28.26 2.99-69.35 4.51-128.51 1.72-14.52-.39-26.73-.72-35.38-.6-2.04.03-3.94-.68-5.5-1.84-.29-.19-.58-.38-.86-.57-.23-.25-.53-.58-.84-.99-.77-1.02-1.19-1.91-1.32-2.2-.46-1.03-.7-2-.82-2.79v-.08c-.09-.94-.04-1.92.21-2.89" style="fill:#14a641"/><path d="M573.43 178.86c15.86 0 29.39 5.61 40.6 16.81 11.21 11.21 16.81 24.74 16.81 40.6s-5.61 29.39-16.81 40.6c-11.21 11.21-24.74 16.81-40.6 16.81h-57.41V178.85h57.41Zm-32.81 90.22h32.81c9.08 0 16.81-3.2 23.21-9.6s9.6-14.13 9.6-23.21-3.2-16.81-9.6-23.21-14.14-9.6-23.21-9.6h-32.81zM645.76 236.27c0-15.86 5.6-29.39 16.81-40.6s24.74-16.81 40.6-16.81v24.61c-9.08 0-16.81 3.2-23.21 9.6s-9.6 14.14-9.6 23.21v57.41h-24.61v-57.41ZM784.39 256.78h28.13c-2.79 7.38-7.19 14.08-13.21 20.09-11.21 11.21-24.74 16.81-40.6 16.81s-29.39-5.6-40.6-16.81-16.81-24.74-16.81-40.6 5.6-29.39 16.81-40.6 24.74-16.81 40.6-16.81 29.39 5.61 40.6 16.81c11.21 11.21 16.81 24.74 16.81 40.6q0 6.405-1.23 12.3h-86.7c1.58 3.99 4.02 7.63 7.3 10.91 6.4 6.4 14.13 9.6 23.21 9.6s16.81-3.2 23.21-9.6c.87-.87 1.69-1.78 2.46-2.71Zm4.84-32.81c-1.59-3.99-4.02-7.63-7.3-10.91-6.4-6.4-14.14-9.6-23.21-9.6s-16.81 3.2-23.21 9.6c-3.28 3.28-5.71 6.92-7.3 10.91zM945.88 293.69h-24.61v-10.17c-9.51 6.78-20.45 10.17-32.81 10.17-15.86 0-29.39-5.6-40.6-16.81s-16.81-24.74-16.81-40.6 5.6-29.39 16.81-40.6 24.74-16.81 40.6-16.81 29.39 5.61 40.6 16.81c11.21 11.21 16.81 24.74 16.81 40.6v57.41Zm-34.21-34.21c6.4-6.4 9.6-14.13 9.6-23.21s-3.2-16.81-9.6-23.21-14.14-9.6-23.21-9.6-16.81 3.2-23.21 9.6-9.6 14.14-9.6 23.21 3.2 16.81 9.6 23.21 14.13 9.6 23.21 9.6 16.81-3.2 23.21-9.6M985.41 236.27v57.41H960.8v-57.41c0-15.86 5.6-29.39 16.81-40.6s24.74-16.81 40.6-16.81 29.39 5.61 40.6 16.81a65 65 0 0 1 4.51 5 65 65 0 0 1 4.51-5c11.21-11.21 24.74-16.81 40.6-16.81s29.39 5.61 40.6 16.81c11.21 11.21 16.81 24.74 16.81 40.6v57.41h-24.61v-57.41c0-9.08-3.2-16.81-9.6-23.21s-14.14-9.6-23.21-9.6-16.81 3.2-23.21 9.6-9.6 14.14-9.6 23.21v57.41H1051v-57.41c0-9.08-3.2-16.81-9.6-23.21s-14.14-9.6-23.21-9.6-16.81 3.2-23.21 9.6-9.6 14.14-9.6 23.21ZM1180.77 236.27v-57.41h24.61v57.41c0 9.08 3.2 16.81 9.6 23.21s14.13 9.6 23.21 9.6 16.81-3.2 23.21-9.6 9.6-14.13 9.6-23.21v-57.41h24.61v90.22c0 15.86-5.61 29.39-16.81 40.6-11.21 11.21-24.74 16.81-40.6 16.81v-24.61c9.08 0 16.81-3.2 23.21-9.6q2.625-2.625 4.59-5.58c-8.31 4.65-17.58 6.97-27.8 6.97-15.86 0-29.39-5.6-40.6-16.81s-16.81-24.74-16.81-40.6Z" class="st3"/><path d="M771.16 350.72h-20.22v-5.26h46.52v5.26h-20.22v52.27h-6.08zM820.1 399.66c-4.63-2.55-8.25-6.04-10.85-10.48s-3.9-9.42-3.9-14.96 1.3-10.52 3.9-14.96 6.22-7.93 10.85-10.48 9.79-3.82 15.49-3.82 10.83 1.26 15.41 3.78c4.57 2.52 8.18 6.01 10.81 10.48s3.94 9.47 3.94 15-1.31 10.53-3.94 15-6.23 7.96-10.81 10.48-9.71 3.78-15.41 3.78-10.86-1.27-15.49-3.82m27.82-4.69c3.67-2.05 6.55-4.9 8.63-8.55 2.08-3.64 3.12-7.71 3.12-12.2s-1.04-8.56-3.12-12.2-4.96-6.49-8.63-8.55c-3.67-2.05-7.78-3.08-12.33-3.08s-8.67 1.03-12.37 3.08-6.6 4.9-8.71 8.55c-2.11 3.64-3.16 7.71-3.16 12.2s1.05 8.56 3.16 12.2 5.01 6.49 8.71 8.55 7.82 3.08 12.37 3.08 8.66-1.03 12.33-3.08M889.26 397.07c-4.16-4.27-6.25-10.49-6.25-18.66v-32.96h6.08v32.71c0 6.69 1.51 11.67 4.52 14.96s7.37 4.93 13.07 4.93 10.14-1.64 13.15-4.93 4.52-8.27 4.52-14.96v-32.71h5.92v32.96c0 8.17-2.07 14.38-6.21 18.66-4.14 4.27-9.93 6.41-17.38 6.41s-13.26-2.14-17.42-6.41M991.99 402.99l-13.15-18.49c-1.48.16-3.01.25-4.6.25h-15.45V403h-6.08v-57.53h21.53c7.34 0 13.09 1.75 17.26 5.26 4.16 3.51 6.25 8.33 6.25 14.46 0 4.49-1.14 8.29-3.41 11.38-2.27 3.1-5.52 5.33-9.74 6.7l14.05 19.72zm-4.85-27.21c3.01-2.52 4.52-6.05 4.52-10.6s-1.51-8.23-4.52-10.73c-3.01-2.49-7.37-3.74-13.07-3.74h-15.29v28.85h15.29c5.7 0 10.05-1.26 13.07-3.78M1019.81 401.42c-3.92-1.37-6.94-3.18-9.08-5.42l2.38-4.68c2.08 2.08 4.85 3.77 8.3 5.05a30.3 30.3 0 0 0 10.68 1.93c5.15 0 9.01-.95 11.59-2.84 2.57-1.89 3.86-4.34 3.86-7.36 0-2.3-.7-4.14-2.1-5.51s-3.11-2.42-5.14-3.16-4.85-1.55-8.46-2.42c-4.33-1.1-7.78-2.15-10.36-3.16s-4.78-2.56-6.62-4.64-2.75-4.9-2.75-8.47c0-2.9.77-5.55 2.3-7.93s3.89-4.29 7.07-5.71 7.12-2.14 11.83-2.14c3.29 0 6.51.45 9.66 1.36 3.15.9 5.88 2.15 8.18 3.74l-2.05 4.85a28.4 28.4 0 0 0-7.73-3.58c-2.74-.79-5.42-1.19-8.05-1.19-5.04 0-8.83.97-11.38 2.92s-3.82 4.45-3.82 7.52q0 3.45 2.1 5.55c1.4 1.4 3.15 2.47 5.26 3.21s4.94 1.55 8.51 2.42c4.22 1.04 7.63 2.07 10.23 3.08s4.81 2.55 6.62 4.6 2.71 4.84 2.71 8.34c0 2.9-.78 5.55-2.34 7.93s-3.96 4.27-7.19 5.67-7.21 2.1-11.92 2.1c-4.27 0-8.37-.68-12.29-2.05Z" class="st0"/></svg>