<svg xmlns="http://www.w3.org/2000/svg" id="Capa_1" version="1.1" viewBox="0 0 1354.27 455.23"><defs><style>.st0{fill:#1d1d1b}.st3{fill:#000100}</style></defs><path d="M304.99 49.48c83.75 0 151.64 67.89 151.64 151.64 0 77.71-58.46 141.76-133.8 150.59 53.23-18.92 91.36-69.74 91.36-129.47 0-75.87-61.51-137.38-137.38-137.38-45.9 0-86.54 22.51-111.48 57.09 23.05-54.35 76.91-92.48 139.66-92.48" style="fill:#00a940;fill-rule:evenodd"/><path d="M97.52 359.42c7.36-28.58 19.27-98.75 36.3-158.61 18.56-65.24 50.97-126.88 117.51-150.84C84.74 75.22 91.61 264.04 59 390.59c-1.08 4.18.56 8.41 3.57 11.19 2.11 1.95 4.9 3.18 7.93 3.14 62.16-.85 124.5 2.07 186.6.15 45.22-1.4 90.56-11.93 127.53-39.08 34.06-25 55.1-62.42 66.14-102.64-9.96 25.75-26.71 49.17-49.48 67.45-28.42 22.8-95.27 35.79-130.76 38.88-28.26 2.99-69.35 4.51-128.51 1.72-14.52-.39-26.73-.72-35.38-.6-2.04.03-3.94-.68-5.5-1.84-.29-.19-.58-.38-.86-.57-.23-.25-.53-.58-.84-.99-.77-1.02-1.19-1.91-1.32-2.2-.46-1.03-.7-2-.82-2.79v-.08c-.09-.94-.04-1.92.21-2.89" style="fill:#00a940"/><path d="M982.4 321.75c5.1 7.52 10.01 14.76 14.97 22.07-9.5 3.15-13.94 1.75-19.01-5.82-2.45-3.66-5.26-7.14-7.24-11.03-2.47-4.86-6.03-5.87-11.52-4.35v22.04h-12.12v-56.58c11.15 0 21.94-.72 32.65 0 8.79.59 14.09 6.11 15.26 13.67 1.31 8.42-2.3 14.88-10.52 18.83l-2.47 1.18Zm-22.8-10.25c5.8 0 11.7.22 17.2-.08 3.71-.2 5.56-2.62 5.61-6.42.05-4.01-1.7-6.7-5.75-6.92-5.49-.3-10.96-.07-17.06-.07 0 3.22-.17 11.37 0 13.49M860.78 319.29c0 22.1-19.08 33.53-38.97 23.29-5.84-3.01-10.01-7.67-10.4-14.42-.45-7.75-.24-15.54-.08-23.31.04-1.92.75-3.95 1.58-5.72 4.19-8.93 16.2-13.76 28.54-11.64 11.51 1.98 18.22 8.85 19.14 19.8.25 2.98.18 11 .18 12Zm-13.21-2.8c0-2.6.08-5.21-.02-7.81-.26-7.16-4.11-10.78-11.52-10.94-7.5-.16-11.8 3.69-12.05 11.04-.16 4.8-.08 9.62 0 14.42.12 7.76 4.36 12.01 11.84 12 7.47 0 11.62-4.28 11.75-12.11.04-2.2 0-4.41 0-6.61ZM1009.69 338.63s-.01-.04-.01-.05c-.43-2.19 3.29-6.15 5.27-6.61.83-.19 1.69-.05 2.53.1 5.04.89 10.01 2.14 15.07 2.87 3.65.53 10.57 1.95 13.72-.69.87-.73 1.38-1.81 1.73-2.9.47-1.43.69-3.04.06-4.41-.48-1.04-1.41-1.81-2.39-2.43-8.83-5.56-22.17-1.62-29.55-9.9-1.68-1.89-2.73-4.29-3.19-6.78-.79-4.34.25-8.98 2.82-12.57 3.33-4.65 8.71-6.66 14.15-7.57 10.04-1.68 20.66.35 29.37 5.62-1.09 1.96-1.79 6.34-4.46 6.77-.61.1-1.24 0-1.85-.1-6.82-1.09-13.73-2.62-20.68-2.18-1.47.09-2.97.34-4.22 1.11-1.51.93-2.54 2.61-2.66 4.38-.13 1.77.64 3.58 2.01 4.72s3.19 1.57 4.93 1.95c6.04 1.34 12.5 1.91 18.31 4.11 3 1.13 5.84 2.91 7.72 5.51 1.65 2.28 2.49 5.1 2.61 7.92.17 4.09-1.21 8.27-3.97 11.28-4.86 5.29-13.12 6.68-19.97 6.94-7.97.3-16.04-1.33-23.23-4.77-.77-.37-3.83-1.48-4.12-2.34ZM799.88 297.98h-18v46.58h-12.56v-46.52h-18.7v-9.99h49.26v9.92ZM928.17 289.61h-12.16v13.2c0 7.03.07 14.07-.02 21.1-.1 8.11-4.35 11.76-12.28 11.86-7.93-.1-11.6-3.76-11.7-11.86-.09-7.03-.02-14.07-.02-21.1v-13.2h-12.16c0 12.18-.07 24.04.02 35.9.08 10.37 5.97 17.61 15.77 19.66 2.73.57 5.39.85 7.95.89s.1 0 .15 0h.14c2.6-.05 5.79-.33 8.52-.9 9.8-2.04 15.69-9.29 15.77-19.66.09-11.86.02-23.72.02-35.9Z" class="st0"/><path d="M573.43 108.86c15.86 0 29.39 5.61 40.6 16.81 11.21 11.21 16.81 24.74 16.81 40.6s-5.61 29.39-16.81 40.6c-11.21 11.21-24.74 16.81-40.6 16.81h-57.41V108.85h57.41Zm-32.81 90.22h32.81c9.08 0 16.81-3.2 23.21-9.6s9.6-14.13 9.6-23.21-3.2-16.81-9.6-23.21-14.14-9.6-23.21-9.6h-32.81zM645.76 166.27c0-15.86 5.6-29.39 16.81-40.6s24.74-16.81 40.6-16.81v24.61c-9.08 0-16.81 3.2-23.21 9.6s-9.6 14.14-9.6 23.21v57.41h-24.61v-57.41ZM784.39 186.78h28.13c-2.79 7.38-7.19 14.08-13.21 20.09-11.21 11.21-24.74 16.81-40.6 16.81s-29.39-5.6-40.6-16.81-16.81-24.74-16.81-40.6 5.6-29.39 16.81-40.6 24.74-16.81 40.6-16.81 29.39 5.61 40.6 16.81c11.21 11.21 16.81 24.74 16.81 40.6q0 6.405-1.23 12.3h-86.7c1.58 3.99 4.02 7.63 7.3 10.91 6.4 6.4 14.13 9.6 23.21 9.6s16.81-3.2 23.21-9.6c.87-.87 1.69-1.78 2.46-2.71Zm4.84-32.81c-1.59-3.99-4.02-7.63-7.3-10.91-6.4-6.4-14.14-9.6-23.21-9.6s-16.81 3.2-23.21 9.6c-3.28 3.28-5.71 6.92-7.3 10.91zM945.88 223.69h-24.61v-10.17c-9.51 6.78-20.45 10.17-32.81 10.17-15.86 0-29.39-5.6-40.6-16.81s-16.81-24.74-16.81-40.6 5.6-29.39 16.81-40.6 24.74-16.81 40.6-16.81 29.39 5.61 40.6 16.81c11.21 11.21 16.81 24.74 16.81 40.6v57.41Zm-34.21-34.21c6.4-6.4 9.6-14.13 9.6-23.21s-3.2-16.81-9.6-23.21-14.14-9.6-23.21-9.6-16.81 3.2-23.21 9.6-9.6 14.14-9.6 23.21 3.2 16.81 9.6 23.21 14.13 9.6 23.21 9.6 16.81-3.2 23.21-9.6M985.41 166.27v57.41H960.8v-57.41c0-15.86 5.6-29.39 16.81-40.6s24.74-16.81 40.6-16.81 29.39 5.61 40.6 16.81a65 65 0 0 1 4.51 5 65 65 0 0 1 4.51-5c11.21-11.21 24.74-16.81 40.6-16.81s29.39 5.61 40.6 16.81c11.21 11.21 16.81 24.74 16.81 40.6v57.41h-24.61v-57.41c0-9.08-3.2-16.81-9.6-23.21s-14.14-9.6-23.21-9.6-16.81 3.2-23.21 9.6-9.6 14.14-9.6 23.21v57.41H1051v-57.41c0-9.08-3.2-16.81-9.6-23.21s-14.14-9.6-23.21-9.6-16.81 3.2-23.21 9.6-9.6 14.14-9.6 23.21ZM1180.77 166.27v-57.41h24.61v57.41c0 9.08 3.2 16.81 9.6 23.21s14.13 9.6 23.21 9.6 16.81-3.2 23.21-9.6 9.6-14.13 9.6-23.21v-57.41h24.61v90.22c0 15.86-5.61 29.39-16.81 40.6-11.21 11.21-24.74 16.81-40.6 16.81v-24.61c9.08 0 16.81-3.2 23.21-9.6q2.625-2.625 4.59-5.58c-8.31 4.65-17.58 6.97-27.8 6.97-15.86 0-29.39-5.6-40.6-16.81s-16.81-24.74-16.81-40.6Z" class="st3"/></svg>