<svg xmlns="http://www.w3.org/2000/svg" id="Capa_2" data-name="Capa 2" viewBox="0 0 197.2 80"><defs><style>.cls-2{fill:#143960}.cls-3{fill:#726459}</style></defs><g id="Capa_1-2" data-name="Capa 1"><path d="M39.86 50.39v1.57z" style="fill:#a2285c"/><path d="M51.82 40c0-6.6-5.35-11.96-11.96-11.96S27.9 33.39 27.9 40c0 5.88 4.24 10.76 9.84 11.77.69.12 1.41.19 2.13.19V80c1.7 0 3.38-.11 5.02-.31l-2.91-27.92c5.59-1 9.84-5.89 9.84-11.77m-11.96 8.41a8.41 8.41 0 1 1 0-16.82 8.41 8.41 0 0 1 0 16.82" class="cls-2"/><path d="M44.91 55.06c2.56 7.62 5.12 15.25 7.68 22.87 1.37-.46 2.7-.99 4-1.59-3.35-7.29-6.71-14.57-10.06-21.86-.62.26-.94.37-1.62.57ZM48.98 53.17c4.56 6.57 9.11 13.14 13.67 19.71q1.62-1.125 3.12-2.4L50.24 52.22c-.48.4-.73.59-1.26.95M52.09 50.33c6.11 5.16 12.22 10.32 18.34 15.47.82-.97 1.6-1.98 2.32-3.03-6.59-4.56-13.17-9.12-19.76-13.68-.33.51-.51.76-.9 1.23ZM54.22 46.79c7.27 3.44 14.54 6.88 21.81 10.31q.825-1.725 1.47-3.54l-22.74-8.19c-.19.58-.3.87-.54 1.42M55.55 41.31c-.05.61-.08.92-.18 1.52l23.85 4.35c.23-1.26.4-2.55.5-3.85-8.06-.67-16.11-1.35-24.17-2.02M55.55 38.69c8.06-.67 16.11-1.35 24.17-2.02-.11-1.3-.28-2.59-.5-3.85l-23.85 4.35c.1.6.13.91.18 1.52M54.76 34.63c7.58-2.73 15.16-5.46 22.74-8.2q-.66-1.815-1.47-3.54c-7.27 3.44-14.54 6.88-21.81 10.31.24.56.35.84.54 1.42ZM52.99 30.91c6.59-4.56 13.17-9.12 19.76-13.68-.73-1.05-1.5-2.06-2.32-3.03-6.11 5.16-12.22 10.32-18.34 15.47.39.48.57.72.9 1.23ZM50.24 27.78 65.77 9.52q-1.5-1.275-3.12-2.4c-4.56 6.57-9.11 13.14-13.67 19.71.53.36.78.55 1.26.95M56.58 3.65c-1.3-.6-2.63-1.13-4-1.59-2.56 7.62-5.12 15.25-7.68 22.87.67.2 1 .31 1.62.57 3.35-7.29 6.71-14.57 10.06-21.86ZM44.86.31C43.23.11 41.56 0 39.87 0v24.25c.81 0 1.21.02 1.97.1L44.87.31Z" class="cls-2"/><path d="M39.85 51.96c-.72 0-1.43-.07-2.11-.19l-2.91 27.92c1.64.21 3.32.31 5.02.31zM39.85 51.96V80zM39.86 24.25V0c-1.69 0-3.36.11-4.99.31l3.03 24.04c.76-.08 1.16-.1 1.97-.1ZM39.87 0v24.25zM34.82 24.94c-2.56-7.62-5.12-15.25-7.68-22.87-1.37.46-2.7.99-4 1.59 3.35 7.29 6.71 14.57 10.06 21.86.62-.26.94-.37 1.62-.57ZM30.74 26.83c-4.56-6.57-9.11-13.14-13.67-19.71q-1.62 1.125-3.12 2.4l15.53 18.26c.48-.4.73-.59 1.26-.95M27.63 29.67C21.52 24.51 15.41 19.35 9.29 14.2c-.82.97-1.6 1.98-2.32 3.03 6.59 4.56 13.17 9.12 19.76 13.68.33-.51.51-.76.9-1.23ZM25.5 33.21c-7.27-3.44-14.54-6.88-21.81-10.31q-.825 1.725-1.47 3.54l22.74 8.19c.19-.58.3-.87.54-1.42M24.35 37.17.5 32.82c-.23 1.26-.4 2.55-.5 3.85 8.06.67 16.11 1.35 24.17 2.02.05-.61.08-.92.18-1.52M24.17 41.31c-8.06.67-16.11 1.35-24.17 2.02.11 1.3.28 2.59.5 3.85l23.85-4.35c-.1-.6-.13-.91-.18-1.52M24.97 45.37c-7.58 2.73-15.16 5.46-22.74 8.2q.66 1.815 1.47 3.54c7.27-3.44 14.54-6.88 21.81-10.31-.24-.56-.35-.84-.54-1.42ZM26.74 49.09c-6.59 4.56-13.17 9.12-19.76 13.68.73 1.05 1.5 2.06 2.32 3.03 6.11-5.16 12.22-10.32 18.34-15.47-.39-.48-.57-.72-.9-1.23ZM29.48 52.22 13.95 70.48q1.5 1.275 3.12 2.4c4.56-6.57 9.11-13.14 13.67-19.71-.53-.36-.78-.55-1.26-.95M33.2 54.49c-3.35 7.29-6.71 14.57-10.06 21.86 1.3.6 2.63 1.13 4 1.59 2.56-7.62 5.12-15.25 7.68-22.87-.67-.2-1-.31-1.62-.57ZM94.95 34.33l-.42-1.34h-2.77l-.44 1.34h-2.31l3.27-8.99h1.71l3.27 8.99zm-1.76-5.58-.81 2.4h1.57zM103.78 33.39c-.77.8-1.63 1.01-2.61 1.01-1.09 0-1.84-.34-2.49-.99-.92-.92-.92-2.07-.92-3.59s0-2.67.92-3.59c.64-.64 1.4-.99 2.49-.99 2.31 0 3.3 1.5 3.51 2.98h-2.22c-.18-.68-.53-1.01-1.29-1.01-.4 0-.71.18-.87.39-.2.27-.33.57-.33 2.21s.13 1.96.33 2.22c.16.21.47.38.87.38.47 0 .78-.14.99-.35.25-.25.34-.62.34-.96v-.13h-1.33v-1.84h3.52v1.25c0 1.45-.23 2.3-.91 2.99ZM106.23 34.33v-8.99h6.11v1.97h-3.9v1.5h3.33v1.97h-3.33v1.58h3.9v1.97zM119 34.33l-2.88-4.52v4.52h-2.21v-8.99h1.93l2.88 4.52v-4.52h2.21v8.99zM125.89 34.4c-1.1 0-1.86-.34-2.5-.99-.92-.92-.92-2.07-.92-3.59s0-2.67.92-3.59c.64-.64 1.4-.99 2.5-.99 1.71 0 3.07.95 3.4 2.93h-2.25c-.14-.5-.42-.96-1.15-.96-.4 0-.71.16-.87.38-.2.26-.34.58-.34 2.22s.14 1.96.34 2.22c.16.21.47.38.87.38.73 0 1.01-.45 1.15-.96h2.25c-.33 1.98-1.69 2.93-3.4 2.93ZM130.45 34.33v-8.99h2.21v8.99zM139.51 34.33l-.42-1.34h-2.77l-.44 1.34h-2.31l3.27-8.99h1.71l3.27 8.99zm-1.76-5.58-.81 2.4h1.57zM151.79 32.81c-.62 1-1.57 1.52-2.92 1.52h-3.33v-8.99h3.33c1.35 0 2.3.52 2.92 1.52.44.72.44 1.43.44 2.98s0 2.26-.44 2.98Zm-2.01-5c-.2-.3-.5-.51-1.06-.51h-.97v5.05h.97c.56 0 .86-.2 1.06-.5.18-.25.24-.49.24-2.02s-.06-1.77-.24-2.02M153.76 34.33v-8.99h6.11v1.97h-3.9v1.5h3.33v1.97h-3.33v1.58h3.9v1.97zM93.63 45.73h-1.64l-2.97-8.99h2.29l1.52 5.03 1.49-5.03h2.3l-2.98 8.99ZM97.52 45.73v-8.99h2.21v8.99zM106.58 45.73l-.42-1.34h-2.77l-.44 1.34h-2.31l3.27-8.99h1.71l3.27 8.99zm-1.76-5.58-.81 2.4h1.57zM111.43 45.81c-1.05 0-1.72-.25-2.45-.99l1.45-1.44c.28.28.51.45 1 .45.68 0 1.17-.38 1.17-1.24v-5.86h2.21v5.91c0 2.13-1.69 3.16-3.39 3.16ZM116.51 45.73v-8.99h6.11v1.97h-3.9v1.5h3.33v1.97h-3.33v1.58h3.9v1.97zM126.76 45.81c-1.38 0-2.5-.25-3.41-1.19l1.41-1.42c.47.47 1.29.63 2.01.63.87 0 1.29-.29 1.29-.81 0-.21-.05-.39-.18-.53-.11-.11-.3-.2-.59-.24l-1.09-.15c-.8-.11-1.4-.38-1.81-.8-.42-.43-.62-1.04-.62-1.81 0-1.64 1.24-2.84 3.28-2.84 1.29 0 2.26.3 3.03 1.07l-1.39 1.39c-.47-.47-.99-.53-1.71-.53-.77 0-1.09.44-1.09.83 0 .11.04.28.18.42.11.11.3.23.62.27l1.09.15c.81.11 1.39.37 1.77.74.48.47.67 1.14.67 1.97 0 1.83-1.58 2.83-3.47 2.83ZM138.51 42.07v3.66h-2.21v-3.66l-2.72-5.33h2.41l1.41 3.23 1.4-3.23h2.41l-2.72 5.33ZM148.83 38.71v7.02h-2.21v-7.02h-2.21v-1.97h6.63v1.97zM155.58 45.81c-1.87 0-3.4-1.26-3.4-3.23v-5.84h2.21v5.79c0 .83.46 1.31 1.19 1.31s1.21-.48 1.21-1.31v-5.79H159v5.84c0 1.97-1.55 3.23-3.42 3.23M165.22 45.73l-1.59-3.35h-.75v3.35h-2.21v-8.99h3.56c2 0 3.07 1.42 3.07 2.89 0 1.23-.76 2-1.47 2.35l1.95 3.75zm-1.09-7.01h-1.25v1.82h1.25c.61 0 .96-.44.96-.91s-.35-.91-.96-.91M168.91 45.73v-8.99h2.21v8.99zM175.51 45.81c-1.38 0-2.5-.25-3.41-1.19l1.41-1.42c.47.47 1.29.63 2.01.63.87 0 1.29-.29 1.29-.81 0-.21-.05-.39-.18-.53-.11-.11-.3-.2-.59-.24l-1.09-.15c-.8-.11-1.4-.38-1.81-.8-.42-.43-.62-1.04-.62-1.81 0-1.64 1.24-2.84 3.28-2.84 1.29 0 2.26.3 3.03 1.07l-1.39 1.39c-.47-.47-.99-.53-1.71-.53-.77 0-1.09.44-1.09.83 0 .11.04.28.18.42.11.11.3.23.62.27l1.09.15c.81.11 1.39.37 1.77.74.48.47.67 1.14.67 1.97 0 1.83-1.58 2.83-3.47 2.83ZM186.62 45.73v-4.31l-1.28 2.22h-1.41l-1.28-2.22v4.31h-2.21v-8.99h2.17l2.02 3.97 2.02-3.97h2.17v8.99h-2.21ZM196.28 44.82c-.64.64-1.4.99-2.5.99s-1.86-.34-2.5-.99c-.92-.92-.92-2.07-.92-3.59s0-2.67.92-3.59c.64-.64 1.4-.99 2.5-.99s1.86.34 2.5.99c.92.92.92 2.07.92 3.59s0 2.67-.92 3.59m-1.62-5.8c-.16-.21-.48-.39-.88-.39s-.72.18-.88.39c-.2.27-.33.57-.33 2.21s.13 1.93.33 2.2c.16.21.48.4.88.4s.72-.19.88-.4c.2-.26.33-.56.33-2.2s-.13-1.95-.33-2.21M94.47 57.14l-1.59-3.35h-.75v3.35h-2.21v-8.99h3.56c2 0 3.07 1.41 3.07 2.89 0 1.23-.76 2-1.47 2.35l1.95 3.75zm-1.09-7.01h-1.25v1.82h1.25c.61 0 .96-.44.96-.91s-.35-.91-.96-.91M98.16 57.14v-8.99h6.11v1.97h-3.9v1.5h3.33v1.97h-3.33v1.58h3.9v1.97zM111.58 56.21c-.77.8-1.63 1.01-2.61 1.01-1.09 0-1.84-.34-2.49-.99-.92-.92-.92-2.07-.92-3.59s0-2.67.92-3.59c.64-.64 1.4-.99 2.49-.99 2.31 0 3.3 1.5 3.51 2.98h-2.22c-.18-.68-.53-1.01-1.29-1.01-.4 0-.71.18-.87.39-.2.27-.33.57-.33 2.21s.13 1.96.33 2.22c.16.21.47.38.87.38.47 0 .78-.14.99-.35.25-.25.34-.62.34-.96v-.13h-1.33v-1.84h3.52v1.25c0 1.45-.23 2.3-.91 2.99ZM114.02 57.14v-8.99h2.21v8.99zM120.62 57.22c-1.38 0-2.5-.25-3.41-1.19l1.41-1.41c.47.47 1.29.63 2.01.63.87 0 1.29-.29 1.29-.81 0-.21-.05-.39-.18-.53-.11-.11-.3-.2-.59-.24l-1.09-.15c-.8-.11-1.4-.38-1.81-.8-.42-.43-.62-1.04-.62-1.81 0-1.64 1.24-2.84 3.28-2.84 1.29 0 2.26.3 3.03 1.07l-1.39 1.39c-.47-.47-.99-.53-1.71-.53-.77 0-1.09.44-1.09.83 0 .11.04.28.18.42.11.11.3.23.62.27l1.09.15c.81.11 1.39.37 1.77.74.48.47.67 1.14.67 1.97 0 1.83-1.58 2.83-3.47 2.83ZM129.44 50.12v7.02h-2.21v-7.02h-2.21v-1.97h6.63v1.97zM137.49 57.14l-1.59-3.35h-.75v3.35h-2.21v-8.99h3.56c2 0 3.07 1.41 3.07 2.89 0 1.23-.76 2-1.47 2.35l1.95 3.75zm-1.09-7.01h-1.25v1.82h1.25c.61 0 .96-.44.96-.91s-.35-.91-.96-.91M146.21 57.14l-.42-1.34h-2.77l-.44 1.34h-2.31l3.27-8.99h1.71l3.27 8.99zm-1.76-5.58-.81 2.4h1.57zM155.68 55.62c-.62 1-1.57 1.52-2.92 1.52h-3.33v-8.99h3.33c1.35 0 2.3.52 2.92 1.52.44.72.44 1.43.44 2.98s0 2.26-.44 2.98Zm-2.01-5c-.2-.3-.51-.51-1.06-.51h-.97v5.05h.97c.56 0 .86-.2 1.06-.5.18-.25.24-.49.24-2.02s-.06-1.77-.24-2.02M162.56 57.14l-.42-1.34h-2.77l-.44 1.34h-2.31l3.27-8.99h1.71l3.27 8.99zm-1.76-5.58-.81 2.4h1.57z" class="cls-3"/></g></svg>