<svg xmlns="http://www.w3.org/2000/svg" data-name="Capa 2" viewBox="0 0 133.83 80"><g data-name="Capa 1"><path d="M127.38 25.7c-1.76.03-3.64.79-4.19 2.1-.89 2.11.11 8.62-6 8.08-3.19-.28-3.87-4.24-3.17-8.54.03-.21-.35-.7-.57-.72-1.32-.1-2.97 1.05-3.18 2.02-.53 2.41-1.96 7.93-7 6.9-3.81-.78-1.44-6.96-4.07-9.5-4.5-.82-7.69 1.06-10.86 2.04 2.03 8.62-11.59 11.71-13.57 4.41 4.05.24 9.08-.14 9.16-4.41.1-4.8-6.98-6.04-11.2-3.05-1.8 1.28-2.78 2.53-3.37 4.36l-3.58-.17c-1.28-8.96-2.41-16.9-6.62-21.84-9.18-10.76-43.54-8.87-52.6-.01C.63 13.17-.39 23.42.11 34.52.85 50.75 4.64 68.67 9.61 80c1.95-.29 3.39-1.8 3.39-1.8-1.7-4.62-1.54-3.44-2.71-7.34-3.88-12.93-7.31-29.67-6.11-46.18C5.33 9.01 14.68 5.14 30.32 3.98c8.31-.61 19.64-.05 24.77 4.75 4.53 4.24 6.39 12.05 6.45 20.28l-2.34-.11c-.58-1.78-.89-5.3-1.39-6.6-5.15-13.27-34.36-14.71-43.78-5.09-9.71 9.92-4.17 33.1 3.73 40.72 9.32 8.99 35.67 1.42 42.76-5.69 4.29-4.31 5.03-11.26 5.77-19.6h3.74c1 8.38 13.1 8.83 18.32 3.61 1.37-1.37 2.31-3.67 2.66-5.16.35-1.48 5.37-2.73 5.37-1.33.57 9.76 10.78 12.17 14.03 3.05.1 7.97 12.71 7.32 14.93 1.7 1.03 3.12 7.77 7.65 8.48 1.36-4.44-1.1-7.61-3.47-6.45-10.18Zm-46.49 1.36c-.08 2.74-3.33 2.32-6.11 2.38.02-3.05 4.48-4.86 6.11-2.38M36.43 47.42c-1.72 0-4.41-.11-6.11-.68-7.94-2.67-8.18-16.28-2.72-21.04 4.72-4.11 17.11-3.85 19.54 2.64l-5.2-.24c-6.38-.46-12.64.59-11.96 7.45 1.06 10.71 23.76 10.47 21.75-3.48l4.56.12c1.26 11.4-9.95 15.29-19.86 15.23m-1.02-11.54c-.48-3.21 1.76-4 4.75-4.13l7.84.21c2.13 8.23-11.82 9.15-12.6 3.92Zm26.13 3.39c-.59 4.14-1.86 7.95-4.07 10.18-4.43 4.45-25.83 12.37-35.29 6.45-9.11-5.71-13.14-31.14-2.38-38.01 11.22-7.15 35.49-3.32 35.96 10.85l-4.5-.21c-.05-.07-.1-.15-.14-.23-1-1.95-2.54-4.39-4.17-5.65-10.07-7.77-25.46-.96-26.81 9.16-1.53 11.54 4.17 19.57 15.27 19.68 11.42.12 22.08-4.42 23.76-14.25.13-.76.13-3.15.33-4.97l2.61.07c.39 2.18-.36 5.47-.57 6.93" style="fill:#e7362e;fill-rule:evenodd"/><path d="m120.82 15.49-4.07 3.73s-.9 1.81 2.04 1.81l5.54-3.85s1.41-.28 0-1.7c0 0-1.92-1.58-3.51 0Z" style="fill:#e7362e"/></g></svg>