<svg xmlns="http://www.w3.org/2000/svg" id="Capa_2" data-name="Capa 2" viewBox="0 0 93.91 80"><defs><style>.cls-1{fill:#333}.cls-2{fill:#cd3232}</style></defs><g id="Capa_1-2" data-name="Capa 1"><path d="M93.91 38.03c-.22.41-.46.81-.67 1.22-.61 1.16-1.22 2.33-1.84 3.52-.07-.06-.13-.1-.19-.14-1.1-.88-2.32-1.2-3.69-.82-1.06.3-1.87.95-2.51 1.83-.78 1.08-1.09 2.31-1.09 3.62 0 4.23 0 8.45-.01 12.68 0 .07 0 .14-.01.24h-5.1c-.22 0-.27-.06-.27-.27V37.66c0-.21.05-.28.27-.28h4.86c.08 0 .15 0 .25.01v1.47c3.2-2.26 6.52-2.62 10.01-.89v.05ZM46.34 80c-.05-.26-.08-.53-.15-.78-.06-.2.01-.26.19-.31.37-.1.68-.29.92-.61.17-.24.2-.46.08-.74-.47-1.06-.92-2.12-1.38-3.18-.03-.06-.05-.13-.08-.23.31 0 .6-.01.88 0 .06 0 .13.12.17.2.32.72.63 1.45.94 2.17.03.08.07.15.13.27.06-.11.09-.19.13-.26.32-.73.64-1.46.94-2.2.06-.15.14-.2.3-.19.24.01.48 0 .76 0-.06.15-.11.26-.16.37-.54 1.24-1.06 2.49-1.61 3.72-.37.82-1.01 1.38-1.86 1.68-.05.02-.1.05-.15.07h-.05ZM6.36.41h2.99c.07 0 .17.1.19.17l1.05 3.18c.6 1.84 1.19 3.67 1.78 5.51 1.11 3.41 2.21 6.82 3.32 10.23l.11.29c.16-.47.29-.88.43-1.29.85-2.61 1.69-5.22 2.53-7.82.92-2.84 1.84-5.68 2.77-8.51.17-.52.34-1.04.5-1.56.05-.15.12-.2.28-.2h2.7c.19 0 .23.07.26.23.57 2.8 1.15 5.59 1.72 8.39.57 2.75 1.13 5.5 1.69 8.25.73 3.53 1.45 7.06 2.18 10.59.24 1.15.47 2.31.71 3.48h-5.52c-1.08-5.18-2.16-10.36-3.25-15.53h-.06c-.1.24-.19.48-.29.73-1.37 3.55-2.74 7.1-4.12 10.65-.52 1.33-1.04 2.67-1.55 4-.05.14-.12.19-.27.19h-1.48c-.13 0-.2-.04-.26-.17-1.25-3.23-2.5-6.46-3.75-9.68-.71-1.84-1.42-3.67-2.13-5.51-.03-.07-.06-.14-.13-.27-.12.55-.22 1.04-.32 1.52l-1.59 7.58c-.44 2.08-.87 4.17-1.3 6.26-.04.2-.11.28-.33.28-1.66-.01-3.32 0-4.98 0h-.28C2.12 21.04 4.24 10.74 6.36.41M25.43 50.46c.17.62.3 1.2.5 1.75.54 1.46 1.52 2.51 3.01 3.05.73.27 1.5.38 2.28.41 1.27.04 2.51-.15 3.68-.69.64-.3 1.23-.68 1.78-1.13.1-.08.2-.17.34-.27.78 1.36 1.55 2.69 2.33 4.04-.61.51-1.25.94-1.94 1.3-1.97 1.05-4.07 1.55-6.3 1.47-3.84-.15-7-1.7-9.38-4.72-1.83-2.34-2.64-5.03-2.33-8 .42-4.07 2.52-7.05 6.03-9.08 1.48-.86 3.1-1.33 4.8-1.5 1.65-.16 3.29-.04 4.87.48 1.04.34 1.98.93 2.84 1.62 1.72 1.37 2.87 3.13 3.48 5.23.19.65.19 1.38.22 2.07.06 1.26-.07 2.5-.42 3.71-.06.21-.14.28-.36.28H25.44Zm10.94-4.13c-.39-2.11-2.37-4.63-5.41-4.63-3.09 0-5.04 2.58-5.41 4.63h10.81ZM70.62 37.39h5.37c0 .09.01.17.01.26V59.9c0 .21-.05.28-.27.28h-4.86c-.08 0-.15 0-.25-.01v-2.01c-.13.07-.23.13-.33.18-1.17.67-2.37 1.26-3.65 1.71-1.51.53-3.02.55-4.54.1-2.05-.62-3.57-1.9-4.57-3.79-.74-1.41-1.08-2.92-1.08-4.51.01-4.71 0-9.42 0-14.13q0-.33.33-.33h4.74q.31 0 .31.3c0 4.81.03 9.63-.02 14.44-.02 1.69 1.33 2.99 2.74 3.24 1.39.25 2.68-.04 3.92-.69.74-.38 1.39-.88 1.95-1.48.1-.11.17-.29.17-.43V37.4ZM46.2 31.35h-5.36V8.59h3.49c.24 0 .37.06.47.3.23.56.49 1.1.75 1.67.28-.22.53-.43.8-.63 1.36-1.01 2.9-1.55 4.58-1.71 1.59-.15 3.12.06 4.59.69 2.24.98 3.68 2.66 4.41 4.98.33 1.05.46 2.12.45 3.21v14.24c-.11 0-.2.01-.29.01h-4.81c-.24 0-.3-.06-.3-.3 0-4.8-.01-9.61.02-14.41 0-1.25-.55-2.17-1.48-2.88-1.31-.99-2.8-1.16-4.37-.76-1.06.27-1.95.83-2.72 1.6-.18.18-.22.38-.22.62v16.11Z" class="cls-1"/><path d="M17.81 43.77c-.27-.24-.5-.47-.76-.68-1.34-1.08-2.88-1.57-4.59-1.39-2.15.23-3.77 1.35-4.89 3.17a6.98 6.98 0 0 0-1.02 4.54c.29 2.6 1.54 4.61 3.95 5.73 2.13 1 4.23.77 6.19-.56.38-.26.7-.59 1.05-.9.06-.06.09-.15.14-.22.03.02.05.03.08.05l2.43 4.28c-.49.35-.96.71-1.46 1.02-4.22 2.66-9.8 2.32-13.68-.8-2.07-1.67-3.48-3.78-4.12-6.36-.78-3.12-.38-6.1 1.22-8.9 1.43-2.48 3.5-4.23 6.18-5.22 2.42-.9 4.9-.98 7.4-.28 1.52.42 2.89 1.14 4.12 2.12.1.08.16.13.08.26-.75 1.35-1.49 2.7-2.23 4.05-.01.03-.03.05-.06.1ZM43.36 37.48v-4.16c0-.15.02-.24.18-.3 1.64-.62 3.27-1.24 4.91-1.87.08-.03.16-.05.28-.09v6.41h6.43v4.44h-6.13c-.23 0-.28.07-.28.29 0 3.48.03 6.96 0 10.44-.02 1.7.96 2.57 2.38 2.8 1.56.25 2.99-.12 4.29-1.03.08-.06.16-.12.27-.2 0 .12.02.19.02.26v4.74c0 .18-.05.28-.22.35-1.23.54-2.52.78-3.85.81-1.13.03-2.25-.06-3.35-.32-2.71-.63-4.57-2.68-4.82-5.45-.05-.54-.07-1.09-.07-1.64V41.91c-.11 0-.19-.01-.28-.01h-2.16c-.2 0-.25-.06-.25-.25v-3.94c0-.19.05-.24.24-.24h2.45Z" class="cls-1"/><path d="M79.8 20.64c.03-2.8.05-4.83.09-6.86 0-.37.04-.74.11-1.09.18-.81.73-1.26 1.56-1.23.5.02.99.1 1.48.19 1.9.37 3.79.74 5.68 1.13.62.13 1.24.27 1.84.47.77.25 1.22.83 1.53 1.56.39.92.44 1.88.41 2.86-.05 1.41-.33 2.78-.72 4.13-.46 1.61-.96 3.2-1.5 4.79-.37 1.07-.82 2.11-1.28 3.15-.17.39-.44.75-.7 1.1-.25.34-.62.52-1.04.52-1.77-.03-3.53-.05-5.3-.15-.98-.05-1.52-.58-1.66-1.55s-.23-1.96-.28-2.94c-.11-2.28-.17-4.56-.23-6.07ZM63.2 25.96c.15-2.57.28-5.14.45-7.7.07-1.12.18-2.25.33-3.36.2-1.47 1.02-1.93 2.36-1.77 1.74.21 3.27.97 4.63 2.06.52.42.77.95.83 1.61.28 3.05.59 6.1.87 9.15.14 1.53.22 3.06.33 4.58v.4c0 .48-.2.86-.61 1.12a8.9 8.9 0 0 1-3.65 1.31c-1.15.15-2.28.07-3.37-.35a5.2 5.2 0 0 1-1.77-1.16c-.26-.25-.38-.55-.38-.9 0-1.41.02-2.82.02-4.22v-.77h-.03Z" class="cls-2"/><path d="M32.46 13.32h-2.91V8.7h8.27c0 .08.01.16.01.25V31.1c0 .2-.04.27-.25.27H32.7c-.07 0-.14 0-.24-.01zM35.26 0c1.79 0 3.29 1.5 3.28 3.29 0 1.79-1.51 3.27-3.29 3.26a3.287 3.287 0 0 1-3.26-3.26C31.97 1.49 33.45 0 35.26 0M7.2 70.92c.1-.47.19-.89.27-1.32.28-1.38.57-2.75.85-4.13.03-.13.03-.27.23-.24.18.03.37-.07.46.22.31 1.03.66 2.05.99 3.08.02.07.05.14.11.27.15-.47.28-.87.42-1.28.22-.69.46-1.38.67-2.08.09-.31.31-.17.49-.2s.18.11.2.22c.36 1.74.72 3.49 1.07 5.23.01.07.02.14.04.23h-.9c-.05 0-.12-.13-.13-.2-.17-.79-.34-1.59-.5-2.38-.01-.07-.03-.13-.07-.26-.05.11-.09.18-.11.25-.31.8-.62 1.6-.93 2.41-.04.11-.08.21-.24.21s-.21-.08-.26-.21c-.3-.79-.61-1.58-.91-2.36a.6.6 0 0 0-.15-.24c-.16.78-.33 1.55-.49 2.33-.1.47-.09.47-.56.47h-.54ZM69.48 74.18c.01.12.02.21.03.34.8-.52 1.56-.66 2.17.17.33-.18.64-.39.97-.51.62-.22 1.25.05 1.54.64.12.25.21.55.22.83.03.86.01 1.72 0 2.58 0 .03 0 .06-.02.1h-.91V75.7c0-.46-.31-.75-.76-.66-.25.05-.47.22-.69.36-.06.04-.08.18-.09.27v2.67h-.79c-.17 0-.13-.13-.13-.22 0-.79-.03-1.58 0-2.37.03-.53-.43-.87-.96-.67-.12.05-.24.11-.35.18a.46.46 0 0 0-.23.45c.01.78 0 1.56 0 2.35v.27h-.91v-4.15h.9ZM67.28 70.96h-.8c-.16 0-.13-.13-.13-.22 0-.81-.02-1.61 0-2.42.01-.41-.3-.77-.75-.67-.25.05-.47.21-.69.35-.06.03-.08.16-.08.25v2.46c0 .2-.07.26-.25.25-.22-.01-.43 0-.67 0v-4.18h.9c.01.11.02.21.03.35.8-.52 1.55-.65 2.2.23.32-.31.66-.54 1.09-.61.52-.09.94.08 1.26.49.23.3.33.65.34 1.03v2.46c0 .17-.04.24-.22.23-.16-.01-.33-.01-.49 0-.17.01-.21-.06-.21-.22 0-.79-.02-1.58.01-2.37.02-.53-.38-.88-.98-.69-.43.14-.57.34-.57.78v2.48ZM17.38 74.94h1.98v.99h-1.79c-.14 0-.19.05-.19.19 0 .33.01.66 0 .99 0 .17.07.21.22.21h2.44v.97h-3.62v-5.68h3.62v.97h-2.43c-.19 0-.24.06-.24.24.01.37 0 .73 0 1.14ZM47.8 70.95l-.99-.09c-.05 0-.11 0-.16.02-1.38.33-2.64-.67-2.63-2.09 0-1.23.95-2.21 2.12-2.19.22 0 .43.06.68.09v-1.58h.98zm-.97-2.18c0-.27.01-.55 0-.82 0-.1-.07-.23-.15-.29-.41-.33-.98-.25-1.33.18-.43.52-.42 1.35.01 1.87.34.41.86.49 1.28.2.13-.09.21-.2.2-.37-.01-.26 0-.52 0-.77ZM58.44 66.77c-.3-.14-.56-.33-.85-.39-.53-.11-1.03.19-1.29.72-.35.72-.33 1.44.13 2.11.45.65 1.29.72 1.85.16.04-.04.09-.08.15-.14.16.32.31.62.44.92.02.05-.04.17-.1.22-.78.7-1.98.73-2.8.06-1.42-1.14-1.46-3.54-.06-4.72.82-.69 1.94-.72 2.79-.06.14.11.21.2.1.38-.15.25-.25.53-.35.74ZM51.42 69.68c.15.27.28.49.41.71-.58.55-1.59.69-2.36.33-.84-.39-1.29-1.05-1.3-1.98 0-.84.56-1.65 1.35-1.94.78-.29 1.52-.28 2.17.31.53.48.65 1.09.54 1.78-.03.17-.11.21-.27.21h-2.62c-.04.46.3.85.81.94.47.08.89-.05 1.27-.36m-2.1-1.36h1.96c-.09-.49-.47-.81-.93-.83-.51-.02-.9.29-1.03.83M28.24 76.52c.05.36.17.65.46.8.58.31 1.13.17 1.66-.2.14.24.27.47.41.71-.4.35-.87.51-1.38.52-.94.01-1.67-.4-2.08-1.25-.38-.8-.27-1.58.31-2.25.63-.72 1.45-.94 2.36-.69.79.22 1.34 1.13 1.21 1.94q-.07.42-.5.42h-2.46Zm1.98-.76a.99.99 0 0 0-1.07-.84c-.46.04-.88.45-.86.84zM71.22 69.1c.03.91 1.14 1.3 2.11.6.14.23.27.47.4.7-.82.79-2.36.68-3.13-.23-.56-.66-.7-1.41-.35-2.21.36-.82 1.02-1.25 1.9-1.32.84-.07 1.47.29 1.86 1.04.21.4.19.83.11 1.26-.03.16-.13.16-.26.16h-2.64m.02-.78h1.94a1 1 0 0 0-1.05-.83c-.46.03-.87.41-.89.83M28.96 69.1c.06.96.95 1.2 2.11.61.13.23.27.46.4.69-.8.76-2.26.69-3.05-.15-.62-.65-.79-1.42-.45-2.25.34-.84 1.02-1.28 1.92-1.36 1.07-.09 1.77.59 1.95 1.31.08.32.01.68 0 1.02 0 .14-.11.14-.22.14h-2.66Zm1.95-.76c-.04-.5-.5-.86-1.02-.84-.47.02-.9.41-.91.84h1.92ZM61.39 74.17c.01.09.02.15.03.22h.07c.52-.33 1.07-.41 1.65-.16.07.03.18-.03.27-.04h1.36v4.15h-.95c0-.08-.01-.17-.01-.26v-2.79c0-.19-.05-.26-.25-.25-.3.01-.3 0-.3-.31 0-.12 0-.23-.06-.37-.14.26-.28.51-.42.77-.77-.36-1.37.02-1.38.87-.01.7 0 1.39 0 2.09v.28h-.86c-.17 0-.12-.13-.12-.23v-3.76c0-.15.05-.21.2-.2h.77ZM87.43 68.79c0 1.2-.97 2.18-2.11 2.16-1.17-.02-2.08-.98-2.08-2.19 0-1.22.95-2.18 2.12-2.17 1.14 0 2.08 1 2.07 2.2m-1.17.65c.17-.33.18-.73.08-1.09-.03-.1-.06-.19-.1-.28-.39-.8-1.41-.84-1.85.05-.22.44-.2.97.04 1.38.41.71 1.22.76 1.68.18q.09-.12.15-.24M38.84 78.38c-1.15 0-2.1-.98-2.1-2.17 0-1.2.94-2.19 2.08-2.19 1.17 0 2.11.97 2.11 2.19 0 1.19-.95 2.18-2.09 2.18Zm1-1.71c.11-.36.08-.76-.06-1.11-.01-.03-.03-.06-.04-.09-.34-.67-1.13-.78-1.61-.26-.52.57-.48 1.58.12 2.08.33.28.82.27 1.16 0 .22-.16.35-.37.43-.64ZM74.78 76.2c0-1.2.94-2.18 2.09-2.18s2.09.98 2.1 2.18c0 1.21-.94 2.19-2.1 2.19-1.15 0-2.08-.98-2.08-2.19Zm3.1.51c.09-.26.09-.54.04-.81a.8.8 0 0 0-.06-.22c-.15-.46-.53-.78-.95-.79-.48 0-.79.26-.98.68-.23.51-.2 1.01.11 1.47.39.59 1.11.64 1.57.11.12-.13.2-.28.26-.44ZM61.49 70.95c-1.16 0-2.09-.98-2.09-2.18 0-1.19.94-2.18 2.07-2.18 1.19 0 2.12.97 2.13 2.19 0 1.19-.95 2.17-2.1 2.17Zm-1.07-2.25c0 .45.12.79.36 1.05.41.44 1.04.44 1.44 0 .46-.51.48-1.39.03-1.92-.4-.47-1.03-.49-1.46-.04-.26.27-.36.61-.37.92ZM41.63 68.77c0 1.2-.94 2.18-2.09 2.18-1.16 0-2.11-.99-2.1-2.2.01-1.2.95-2.17 2.1-2.17s2.09.99 2.09 2.18Zm-1.02.14c0-.48-.09-.79-.31-1.06-.43-.52-1.1-.52-1.53 0-.44.53-.41 1.42.06 1.92.39.41.97.42 1.38.03.29-.28.4-.62.41-.88ZM56.12 74.12h.97c0 .09.01.17.01.25v2.28c0 .62.42.92 1.02.72.07-.02.15-.05.22-.09.27-.14.42-.31.41-.66-.03-.83-.01-1.66-.01-2.5h.97v4.15h-.95l-.03-.33c-.19.09-.36.18-.54.26-.93.43-1.89-.15-2.02-1.17-.04-.32-.04-.64-.04-.96v-1.96ZM19.08 70.92h-.83c-.04 0-.12-.13-.12-.2 0-.77-.01-1.53 0-2.3 0-.34-.06-.62-.38-.79-.35-.19-.69-.14-1.02.06-.16.1-.25.23-.24.44.01.86 0 1.72 0 2.58 0 .06 0 .12-.01.2h-.94v-4.13c.46-.11.62-.06.86.3.35-.28.75-.43 1.2-.41.84.03 1.47.61 1.49 1.47.03.9 0 1.8 0 2.7 0 .02-.01.04-.03.09Z" class="cls-1"/><path d="M54.89 78.34h-.98v-4.72h-1.63v-.87c0-.04.09-.11.13-.11h4.01s.01 0 .04.02v.94h-1.58v4.73ZM20.13 74.11h.9c.07 0 .14.09.19.15.33.42.65.84.99 1.29.24-.31.5-.58.68-.89.27-.46.62-.66 1.15-.57.07.01.15 0 .27 0-.45.59-.86 1.13-1.28 1.66-.33.42-.34.42-.01.84l1.1 1.43c.05.07.1.15.19.26h-.89c-.07 0-.14-.08-.19-.14-.33-.42-.66-.85-1.01-1.31-.27.35-.56.67-.78 1.02s-.49.51-.9.44c-.11-.02-.23 0-.39 0 .04-.07.06-.13.1-.17.45-.58.89-1.17 1.34-1.75.12-.15.1-.24 0-.38-.43-.54-.84-1.09-1.26-1.63-.06-.07-.11-.15-.19-.26ZM80.86 67.06l-.41.76c-.33-.31-.7-.44-1.12-.35-.29.06-.52.22-.69.45-.4.53-.35 1.3.11 1.76.47.46 1.1.46 1.72-.04.07.13.15.25.22.38.07.12.14.25.2.36-.74.75-2.13.7-2.94-.09-.85-.84-.87-2.22-.03-3.08.78-.81 2.18-.89 2.94-.15M27.75 69.85v.79c0 .05-.05.13-.09.14-.58.2-1.15.22-1.69-.11-.32-.2-.47-.52-.47-.89-.01-.65-.01-1.3-.01-1.95v-.3l-.47-.03v-.78c.15 0 .3-.02.48-.02v-.64c0-.06.04-.16.09-.18.28-.12.56-.22.88-.34v1.17h1.18v.8h-1.17v1.92c0 .44.25.66.69.59.19-.03.37-.1.59-.17ZM24.84 74.13v-.66c0-.06.05-.15.1-.18.27-.12.55-.22.86-.33v1.17h1.18v.81h-.94c-.17 0-.23.05-.23.23v1.71c0 .4.17.59.57.57.23 0 .45-.09.71-.14v.79c0 .04-.05.1-.1.11-.56.2-1.12.21-1.65-.1-.39-.22-.5-.6-.51-1.02 0-.62-.01-1.24 0-1.85 0-.23-.04-.35-.29-.3-.06.01-.12 0-.2-.01v-.77c.15 0 .31-.02.49-.03ZM65.5 77.82c.19-.21.38-.41.52-.56.26.08.47.18.7.21.19.03.35-.09.41-.28s-.04-.32-.19-.41c-.25-.15-.52-.29-.77-.45-.36-.23-.61-.53-.62-.99-.01-.75.66-1.33 1.4-1.2.39.07.71.26 1.01.54-.22.19-.42.37-.64.56-.05-.04-.14-.12-.23-.15-.13-.05-.27-.1-.4-.09-.1.01-.23.11-.26.2-.03.08.03.24.1.3.17.14.38.25.57.37.15.1.31.18.45.29.72.57.6 1.62-.22 2.04-.6.3-1.37.15-1.84-.38ZM22.02 70.44c.2-.22.38-.41.57-.61.13.08.24.19.37.21.17.03.38.03.53-.04.24-.11.25-.4.04-.55-.19-.14-.4-.24-.6-.36-.34-.19-.66-.4-.79-.8-.14-.43-.07-.82.24-1.15.35-.37.8-.47 1.27-.33.3.09.56.28.89.45-.27.22-.47.4-.68.57.02.02.03.04.05.05-.13-.08-.24-.18-.38-.22a.7.7 0 0 0-.4-.01c-.22.08-.25.32-.07.46.16.13.35.23.53.34.35.2.7.39.87.78.36.83-.29 1.73-1.25 1.72-.46 0-.85-.16-1.19-.51M75.69 66.74c.02.09.03.15.04.19.3-.1.58-.21.88-.27.31-.07.62.04.93.18-.15.29-.29.57-.44.85-.77-.36-1.36 0-1.38.83-.02.72-.01 1.44 0 2.16 0 .2-.06.26-.25.25a3.5 3.5 0 0 0-.56 0c-.15 0-.19-.05-.19-.19v-3.8c0-.11.01-.2.16-.2zM32.88 78.34h-.97v-4.15h.94c.02.06.03.13.06.23.57-.38 1.16-.47 1.81-.14-.15.29-.29.57-.44.85-.77-.36-1.34-.03-1.38.81-.03.7-.02 1.41-.02 2.11v.3ZM32.62 66.75h.94c.01.07.03.14.04.24.58-.37 1.17-.48 1.82-.14-.15.28-.29.56-.44.84-.81-.5-1.4.2-1.4.88v2.35h-.85c-.17 0-.12-.13-.12-.23v-3.73c0-.07 0-.14.02-.22ZM41.24 74.18h.95c.01.07.02.14.04.23.58-.37 1.16-.47 1.81-.14-.15.28-.29.56-.42.82-.03 0-.05.02-.06 0-.67-.45-1.32.14-1.33.76-.02.72 0 1.44 0 2.16v.3h-.97v-4.15ZM81.34 66.76h1.5c0 .1.01.18.01.26v3.64c0 .2-.05.29-.26.27-.23-.02-.56.07-.67-.05-.12-.14-.06-.45-.06-.69v-2.57c-.18 0-.34-.02-.52-.02v-.83ZM13.35 67.59v-.83h1.5c0 .1.01.18.01.27v3.64c0 .2-.05.29-.26.26-.17-.02-.34-.01-.52 0s-.23-.05-.23-.23v-3.08c-.18 0-.35-.02-.52-.02ZM34.77 75.01v-.81h1.51v4.13h-.97v-3q0-.3-.31-.3c-.07 0-.14 0-.23-.01ZM20.33 67.6h-.55v-.74c0-.04.07-.11.11-.11h1.39c0 .1.01.17.01.23v3.7c0 .18-.04.26-.23.24-.24-.02-.48 0-.74 0V67.6ZM35.98 67.6h-.53v-.74c0-.04.1-.11.16-.11h1.2c.12 0 .16.05.16.17v3.84c0 .14-.06.18-.18.17-.26-.01-.51-.02-.77-.02-.01-.25-.04-.49-.04-.74v-2.56ZM64.33 73.77a.6.6 0 0 1-.61-.58c0-.32.27-.6.59-.6s.6.26.6.59-.25.59-.59.6ZM36.51 65.16c.33 0 .59.27.59.6 0 .32-.28.59-.6.59-.33 0-.59-.27-.59-.6 0-.34.26-.59.6-.59M20.84 66.35c-.32 0-.6-.27-.6-.6s.26-.6.59-.6.6.27.6.59-.27.6-.6.6ZM35.81 72.58c.33 0 .59.26.59.6 0 .33-.26.59-.59.59s-.59-.27-.59-.6.27-.59.6-.59ZM14.98 65.76a.596.596 0 0 1-1.19.01c0-.34.26-.61.6-.61.33 0 .58.26.59.6M82.97 65.75a.6.6 0 0 1-.6.59c-.33 0-.59-.27-.59-.6s.27-.59.6-.59c.34 0 .59.25.59.6" class="cls-1"/></g></svg>