<svg xmlns="http://www.w3.org/2000/svg" id="Capa_2" data-name="Capa 2" viewBox="0 0 172.43 80"><defs><style>.cls-1{fill:#010101}</style></defs><g id="Capa_1-2" data-name="Capa 1"><path d="M171.17 72.39a1.25 1.25 0 1 0 0 2.5 1.25 1.25 0 0 0 0-2.5m0 2.31a1.06 1.06 0 1 1 1.06-1.06c0 .58-.47 1.05-1.06 1.06m.41-1.27c0-.23-.16-.36-.4-.36h-.4v1.14h.2v-.41h.21l.21.41h.21l-.23-.45c.13-.05.21-.18.2-.32Zm-.41.19h-.19v-.38h.19c.13 0 .21.07.21.19s-.08.19-.21.19M20.16 59.71v-3.03h-4.65v18.03h4.65V63.9c0-1.96 1.26-2.92 3.22-2.92h2.54v-4.3h-2.17c-1.7 0-3.18.88-3.59 3.03m10.11-10.16c-1.59 0-2.81 1.26-2.81 2.85s1.26 2.81 2.81 2.81 2.81-1.26 2.81-2.81c0-1.59-1.22-2.85-2.81-2.85m-2.32 25.17h4.64V56.69h-4.63v18.03Zm26.72-9.02c0 5.15-4.17 9.32-9.32 9.32-1.97 0-3.9-.64-5.47-1.83v6.82h-4.64V56.68h4.64v1.52c1.57-1.2 3.5-1.84 5.47-1.83 5.15 0 9.32 4.17 9.32 9.32Zm-4.67 0a5.06 5.06 0 1 0-10.12 0c0 2.8 2.27 5.06 5.06 5.06 2.8 0 5.06-2.26 5.07-5.06Zm85.26-1.58-2.7-.74c-1.78-.46-2.47-1.01-2.47-1.95s.97-1.56 2.37-1.56 2.37.87 2.37 1.98v.1h4.27v-.1c0-3.27-2.67-5.47-6.64-5.47s-6.79 2.2-6.79 5.22c0 2.36 1.56 4.13 4.29 4.87l2.59.71c1.97.54 2.7 1.15 2.7 2.23 0 1.14-1.06 1.91-2.63 1.91s-2.74-1.04-2.74-2.58v-.1h-4.54v.1c0 3.7 2.98 6.28 7.24 6.28s7.09-2.52 7.09-6c0-1.7-.76-3.93-4.4-4.9Zm-64.14-7.43h4.64v18.03h-4.64v-1.53a8.94 8.94 0 0 1-5.47 1.83c-5.15 0-9.32-4.17-9.32-9.32s4.17-9.32 9.32-9.32c1.98 0 3.9.63 5.47 1.83zm0 9.02a5.06 5.06 0 1 0-10.12 0c0 2.8 2.27 5.06 5.06 5.06 2.8 0 5.06-2.26 5.07-5.06ZM92.5 50.27h4.64v24.45H92.5v-1.53a8.94 8.94 0 0 1-5.47 1.83c-5.15 0-9.32-4.17-9.32-9.32s4.17-9.32 9.32-9.32c1.98 0 3.9.63 5.47 1.83zm0 15.44a5.06 5.06 0 1 0-10.119-.001 5.06 5.06 0 0 0 10.119.001m26.17 9.02h4.64V56.7h-4.64zm2.32-25.17c-1.59 0-2.81 1.26-2.81 2.85 0 1.55 1.25 2.81 2.81 2.81 1.55 0 2.81-1.25 2.81-2.81 0-1.6-1.22-2.85-2.81-2.85m38.72 16.15c0 5.15-4.17 9.32-9.32 9.32s-9.32-4.17-9.32-9.32 4.17-9.32 9.32-9.32 9.32 4.17 9.32 9.32m-4.26 0a5.06 5.06 0 1 0-5.06 5.06c2.8 0 5.06-2.27 5.06-5.06M17.79 50.26H0v4.13h6.58v20.32h4.62V54.4h6.58v-4.14Zm89.96 19.51-4.13-13.1h-4.87l6.19 18.03h5.58l6.22-18.03h-4.87zm58.77-10.06v-3.03h-4.65v18.03h4.65V63.9c0-1.96 1.26-2.92 3.22-2.92h2.54v-4.3h-2.17c-1.7 0-3.18.89-3.59 3.03" class="cls-1"/><circle cx="86.13" cy="23.71" r="23.71" style="fill:#63bb94"/><path d="m100.78 19.09 2.86-3.11h-6.35a19.83 19.83 0 0 0-22.31 0h-6.36l2.86 3.11c-3.56 3.27-3.8 8.8-.54 12.36 3.27 3.56 8.8 3.8 12.36.54 0 0 .01 0 .02-.01l2.8 3.05 2.8-3.05a8.74 8.74 0 0 0 5.94 2.33c4.83 0 8.75-3.92 8.75-8.75 0-2.46-1.03-4.81-2.85-6.47ZM77.39 31.48c-3.27 0-5.92-2.65-5.92-5.92s2.65-5.92 5.92-5.92 5.92 2.65 5.92 5.92-2.65 5.92-5.92 5.92m8.75-6.09c0-3.9-2.83-7.24-6.57-8.67a17.1 17.1 0 0 1 13.14 0c-3.74 1.43-6.57 4.77-6.57 8.67m8.75 6.09c-3.27 0-5.92-2.65-5.92-5.92s2.65-5.92 5.92-5.92 5.92 2.65 5.92 5.92-2.65 5.92-5.92 5.92m0-9.02c-1.71 0-3.1 1.39-3.1 3.1s1.39 3.1 3.1 3.1 3.1-1.39 3.1-3.1-1.39-3.1-3.1-3.1m-14.39 3.1c0 1.71-1.39 3.1-3.1 3.1s-3.1-1.39-3.1-3.1 1.39-3.1 3.1-3.1 3.1 1.39 3.1 3.1" class="cls-1"/></g></svg>